<?xml version="1.0" encoding="UTF-8" standalone="no"?>
<!-- Created with Inkscape (http://www.inkscape.org/) -->

<svg
   width="109.28714mm"
   height="115.4245mm"
   viewBox="0 0 109.28714 115.4245"
   version="1.1"
   id="svg1"
   xmlns="http://www.w3.org/2000/svg"
   xmlns:svg="http://www.w3.org/2000/svg">
  <defs
     id="defs1" />
  <path
     style="fill:#000000;stroke:#000000;stroke-width:0;stroke-linecap:round"
     id="path24"
     d="m 45.324044,96.357623 c -0.817478,-2.30853 -0.806381,-4.7977 -0.729911,-7.213843 0.11784,-3.723211 0.262549,-4.39873 0.661749,-8.282527 0.62034,-5.288016 1.31767,-10.577208 1.592085,-15.898767 0.09731,-1.887115 0.200957,-3.77793 0.150316,-5.666875 -0.120542,-4.49606 -0.69115,-7.649012 -1.314472,-12.096501 -0.829651,-3.88243 -1.584129,-7.779399 -2.699771,-11.595021 -0.542425,-1.855155 -1.210947,-3.67112 -1.828332,-5.502693 -2.954382,-8.764714 -0.591309,-1.508731 -3.17592,-9.549098 0,0 -10.191028,0.388279 -10.191028,0.388279 v 0 c 0.703324,1.465061 1.449933,2.910117 2.109973,4.395181 1.90754,4.291886 2.476153,6.006944 3.934719,10.519161 2.101734,6.501929 1.525477,4.666565 2.991821,11.461742 0.253209,1.998197 0.61364,3.985713 0.759627,5.994591 0.143803,1.978847 0.133053,3.967297 0.108479,5.951209 -0.08945,7.221233 -1.105228,14.402445 -2.824247,21.410472 -0.395311,1.4986 -0.775962,3.001142 -1.185939,4.495797 -1.990495,7.256763 -0.266669,0.621978 -1.900262,6.778033 -0.322394,1.21492 -0.599096,2.44196 -0.937437,3.65254 -0.07147,0.25571 -0.162494,0.50554 -0.243742,0.75832 z" />
  <path
     style="fill:#000000;stroke:#000000;stroke-width:0;stroke-linecap:round"
     id="path25"
     d="m 31.513519,103.35163 c 4.851617,-1.55323 9.898386,-2.36336 14.845528,-3.540484 1.815973,-0.432093 3.618624,-0.918382 5.427935,-1.377571 1.731883,-0.558525 3.489012,-1.044094 5.195646,-1.675572 5.23902,-1.938515 10.996742,-4.805865 13.512358,-10.148636 0.546217,-1.160076 0.742339,-2.45468 1.11351,-3.682021 0.0011,-1.345713 0.206237,-2.706873 0.0029,-4.037137 -0.882351,-5.772793 -5.165384,-11.067608 -9.170744,-15.07028 -0.818184,-0.817637 -1.707724,-1.560605 -2.561587,-2.340907 -1.63507,-1.538626 -3.556177,-2.775725 -5.075367,-4.44188 -0.522304,-0.572834 -1.343319,-1.645497 -1.547165,-2.434638 -0.136403,-0.52805 -0.08084,-1.087768 -0.121253,-1.631651 0.225314,-0.685376 0.340712,-1.417283 0.675939,-2.056135 0.980572,-1.86871 2.644392,-3.516087 4.124587,-4.951264 2.010368,-1.949225 3.996881,-3.546541 6.075987,-5.425191 0.92593,-0.836658 1.823519,-1.70416 2.735278,-2.55624 1.581894,-1.559381 2.638438,-2.52334 4.045916,-4.177435 1.118232,-1.314172 2.458241,-2.902233 2.220796,-4.781569 -0.06576,-0.520464 -0.335169,-0.99423 -0.502753,-1.491345 -0.409411,-0.509619 -0.754804,-1.078094 -1.228238,-1.528864 -1.348457,-1.2839 -5.944808,-0.809271 -7.610913,-1.587361 -3.300243,-1.54124 -8.226824,0.163289 -11.741248,-0.720191 -4.347625,-0.86411 -7.673846,2.09813 -10.438695,-2.859006 l 20.158522,-3.966699 v 0 c 3.906036,0.75113 1.947087,0.31571 5.875406,1.312697 3.573344,1.00914 7.135196,2.03024 10.544567,3.52658 1.963266,0.86166 4.246329,1.96343 5.879028,3.42189 0.64743,0.57833 1.112412,1.33307 1.668619,1.999613 0.208068,0.691507 0.576424,1.353971 0.624207,2.074519 0.157086,2.368883 -1.727004,4.175876 -3.317705,5.593524 -0.536424,0.478068 -4.707012,3.829698 -5.071208,4.123489 -2.845657,2.40942 -3.184813,2.586852 -5.814023,5.255927 -1.99335,2.023575 -4.219591,4.266676 -5.113234,7.054998 -0.160618,0.50115 -0.146235,1.042312 -0.219353,1.56347 0.08056,0.391372 0.112236,0.796086 0.241684,1.174112 0.208907,0.610056 0.84256,1.58708 1.193429,2.101157 1.069613,1.567146 2.330773,2.989056 3.423584,4.539493 2.276663,3.054499 4.567894,6.115667 6.56835,9.362626 1.573467,2.553909 3.583752,5.896231 4.234019,8.893069 0.309287,1.425384 0.124388,2.914451 0.186581,4.371676 -0.378732,1.340924 -0.542287,2.762305 -1.1362,4.022777 -1.279501,2.715517 -3.399076,4.66516 -5.832067,6.326508 -4.305173,2.939754 -9.352487,4.423976 -14.222947,6.094987 -1.589011,0.495065 -3.176977,0.993515 -4.767035,1.485215 -1.324581,0.4096 -2.659848,0.78535 -3.976862,1.21866 -0.960536,0.31603 -1.901772,0.68796 -2.853822,1.02869 -0.646528,0.23139 -1.303981,0.4335 -1.941894,0.68768 -0.893612,0.35606 -1.039595,0.46773 -1.710502,0.87175 z" />
</svg>
