<?xml version="1.0" encoding="UTF-8" standalone="no"?>
<!-- Created with Inkscape (http://www.inkscape.org/) -->

<svg
   width="109.28715mm"
   height="115.4245mm"
   viewBox="0 0 109.28715 115.4245"
   version="1.1"
   id="svg1"
   xmlns="http://www.w3.org/2000/svg"
   xmlns:svg="http://www.w3.org/2000/svg">
  <defs
     id="defs1" />
  <path
     style="fill:#000000;stroke:#000000;stroke-width:0;stroke-linecap:round"
     id="path26"
     d="m 7.1640695,4.1581337 c 0.3362749,1.2012627 0.4517032,2.4648953 0.56328,3.7051097 0.110195,1.7359823 0.1359283,3.4749906 0.1801106,5.2133566 0.057889,1.770072 0.033524,3.542228 -0.011087,5.312359 -0.013858,1.545841 -0.081594,3.091375 -0.1970114,4.632891 -0.080379,1.122666 -0.1694421,2.244508 -0.223287,3.368853 -0.064594,1.018518 -0.1273004,2.035352 -0.2302533,3.050711 -0.094871,0.949383 -0.190094,1.898572 -0.2818176,2.848238 -0.075734,0.753573 -0.1155008,1.509719 -0.1340039,2.266651 0.078611,1.634766 0.4065574,3.255922 0.6278383,4.876437 0.1158704,0.848488 0.2002357,1.700986 0.300351,2.551479 0.5410113,5.237124 0.7947423,10.505869 0.7992575,15.770765 0.00277,3.350153 -0.092271,5.199071 -0.2104818,8.519751 -0.2816328,5.832608 -0.7465464,11.654026 -1.1385972,17.479773 -0.2009999,2.899666 -0.397672,5.79967 -0.6069871,8.698746 -0.1118976,1.521707 -0.1769389,3.046202 -0.2466446,4.570268 -0.046353,0.894006 -0.1035165,1.78755 -0.1408936,2.681992 -0.025843,0.571396 -0.032231,1.143436 -0.062627,1.714586 -0.016973,0.27814 -0.011087,0.14059 -0.018056,0.41262 0,0 13.0069986,0.004 13.0069986,0.004 v 0 c -0.0053,-0.27159 -3.14e-4,-0.13421 -0.01547,-0.41212 -0.02654,-0.5704 -0.02871,-1.14153 -0.04856,-1.712183 -0.02794,-0.893557 -0.07426,-1.786495 -0.10807,-2.679854 -0.04813,-1.522796 -0.08814,-3.045988 -0.170095,-4.567455 -0.153465,-2.898954 -0.291152,-5.798777 -0.42987,-8.698466 -0.26654,-5.827273 -0.598574,-11.652003 -0.766839,-17.483319 -0.139804,-8.103764 -0.110327,-16.23365 0.930264,-24.286656 0.119592,-0.84888 0.22097,-1.700522 0.358756,-2.546637 0.262905,-1.614455 0.64282,-3.218904 0.785665,-4.849787 0.03261,-0.740663 0.05921,-1.481521 0.08693,-2.222389 0.03838,-0.939176 0.0929,-1.877823 0.188501,-2.813183 0.09693,-1.040702 0.176779,-2.08335 0.240444,-3.126574 0.02962,-1.12071 0.04646,-2.241675 0.07458,-3.362428 0.01763,-1.55674 -0.03961,-3.112158 -0.01227,-4.668871 0.0062,-1.787186 0.0699,-3.574177 0.03653,-5.361352 -0.04387,-1.748795 -0.123103,-3.4965435 -0.1854,-5.244712 -0.0092,-0.7820479 -0.01043,-1.5631495 0.0058,-2.3451406 0.0053,-0.253372 0.01214,-0.7379911 0.0555,-1.0040495 0.01634,-0.1001773 0.05462,-0.1955344 0.08191,-0.2933042 z" />
  <path
     style="fill:#000000;stroke:#000000;stroke-width:0;stroke-linecap:round"
     id="path27"
     d="m 45.002675,7.6324635 c 0.157879,0.6804307 0.130481,1.3883157 0.165146,2.0821693 0.06149,0.9957942 0.133417,1.9917552 0.222057,2.9855972 0.05712,1.398303 0.11005,2.797094 0.139735,4.196351 0.02487,1.46297 0.0168,2.926681 -0.01175,4.389557 -0.03327,1.305887 -0.0065,2.611715 0.02913,3.917156 -0.01547,2.037456 0.210894,4.064202 0.399978,6.089893 0.48667,5.573605 0.836731,11.15641 1.009505,16.748334 0.01082,1.690059 0.02871,5.803697 0.07349,7.477179 0.03627,1.355557 0.106658,2.709988 0.159982,4.064981 0.04255,1.427494 0.09083,2.854828 0.127643,4.282482 0.117283,4.547847 0.09643,4.350571 0.138123,8.913277 0.03081,6.993293 -0.311255,13.980538 -0.681477,20.961818 -0.175721,3.37307 -0.353362,6.746032 -0.548651,10.118032 -0.09655,1.54209 -0.159458,3.08597 -0.243635,4.62871 -0.0069,0.16674 -0.01369,0.33347 -0.0205,0.50021 0,0 12.722453,-0.0133 12.722453,-0.0133 v 0 c -0.01029,-0.1669 -0.02067,-0.33378 -0.031,-0.50067 -0.117745,-1.54301 -0.21572,-3.08752 -0.349573,-4.62929 -0.275477,-3.37124 -0.533973,-6.743817 -0.791099,-10.116498 -0.536486,-6.973909 -1.04534,-13.956173 -1.116734,-20.953422 -0.0034,-4.399988 0.02291,-8.797325 0.126271,-13.196345 0.03181,-1.354795 0.09284,-2.708874 0.116306,-4.063837 0.04315,-2.490796 -0.0055,-4.982614 0.04261,-7.473382 0.171931,-5.591995 0.521483,-11.174825 1.004657,-16.748753 0.187418,-2.026327 0.412403,-4.054026 0.388666,-6.092066 0.03003,-1.306879 0.04965,-2.614184 0.0028,-3.921032 -0.04377,-1.464961 -0.0691,-2.930746 -0.0732,-4.396342 -2.59e-4,-1.406758 0.01819,-2.813194 -10e-4,-4.219889 0.02964,-0.997833 0.0177,-1.997437 -0.03614,-2.994379 -0.01341,-0.6785895 -0.01623,-1.3718017 0.135155,-2.0365247 z" />
  <path
     style="fill:#000000;stroke:#000000;stroke-width:0;stroke-linecap:round"
     id="path28"
     d="m 57.647397,56.427118 c -0.63711,0.04374 -1.269385,0.01655 -1.905863,-0.02417 -0.74815,-0.05173 -1.496826,-0.09205 -2.246173,-0.12111 -0.893182,-0.02926 -1.786711,-0.04519 -2.680322,-0.05244 -1.234941,0.0017 -2.469229,-0.0046 -3.70335,-0.05068 -1.353824,-0.04875 -2.707781,-0.09434 -4.061923,-0.133361 -1.041421,-0.02877 -2.08284,-0.06103 -3.124649,-0.07056 -0.871463,-0.03627 -1.741143,-0.10481 -2.611872,-0.155214 -0.78561,-0.04477 -1.571999,-0.07408 -2.358423,-0.10015 -0.792579,-0.02881 -1.5857,-0.03164 -2.378644,-0.04078 -0.861902,-0.0048 -1.723755,-0.01544 -2.585653,-0.02008 -0.716836,-0.0049 -1.433682,-0.0084 -2.150514,-0.01396 -0.569308,-0.0028 -1.138618,-0.0057 -1.707929,-0.0081 -0.444847,-0.0021 -0.889699,-0.0034 -1.334543,-0.0063 -0.324514,-0.0025 -0.649047,-0.004 -0.973574,-0.0038 -0.29873,-0.0021 -0.597464,4.2e-5 -0.896198,-6.99e-4 -0.27357,-1.35e-4 -0.54715,-3.49e-4 -0.820716,-0.0025 -4.559649,0.02514 -9.306177,-1.129336 -13.6738622,0.184834 -0.140817,0.05312 -0.2859777,0.0569 -0.4332198,0.0704 0,0 12.971875,1.824172 12.971875,1.824172 v 0 c 0.138632,-0.03615 0.272857,-0.08714 0.417355,-0.09692 4.873667,-0.397393 -17.3019192,0.07584 -12.2043797,0.06407 0.283045,-0.0017 0.5661018,-0.0021 0.8491537,-0.0021 0.300186,-7e-4 0.600373,0.0015 0.900555,-2.66e-4 0.337703,3.28e-4 0.675406,-10e-4 1.013101,-0.0028 0.465071,-0.0021 0.930149,-0.0032 1.395223,-0.004 0.588832,-10e-4 1.177661,-0.0021 1.766492,-0.0025 0.743117,-0.0021 1.486242,-0.0021 2.229362,-0.001 0.86873,0.0028 1.737487,6.99e-4 2.606181,0.01029 0.772102,0.0054 1.544135,0.01854 2.31617,0.02983 0.802676,0.01418 1.605338,0.03122 2.407573,0.06205 0.886312,0.03537 1.772285,0.08035 2.656471,0.152567 1.091324,0.08723 2.189004,0.03509 3.28273,0.07428 1.355748,0.02504 2.711611,0.05184 4.066389,0.111211 1.187267,0.05171 2.372669,0.122483 3.561763,0.110472 0.859831,0.01201 1.719745,0.02026 2.579427,0.04113 0.744856,0.01848 1.489636,0.04216 2.233616,0.08373 0.557022,0.03359 1.106298,0.109298 1.660911,0.143701 z" />
  <path
     style="fill:#000000;stroke:#000000;stroke-width:0;stroke-linecap:round"
     id="path29"
     d="m 71.109032,65.483966 c 0.531447,0.321147 0.826981,0.886442 1.114226,1.415252 0.670582,1.234504 1.103934,2.501377 1.52872,3.836788 0.97393,3.226469 1.537737,6.553727 2.060522,9.876902 0.471266,2.904924 0.800871,5.828598 1.110552,8.754099 0.256947,2.600366 0.315353,5.214145 0.364592,7.824915 0.04421,1.727444 0.01016,3.455878 0.05708,5.183138 0.01161,1.21459 0.01122,2.42977 -0.01948,3.6441 -0.01819,0.74333 -0.03077,1.48689 -0.05414,2.23008 -0.01029,0.45457 -0.01784,0.90935 -0.03668,1.36367 0,0 13.026311,-0.0148 13.026311,-0.0148 v 0 c -0.02923,-0.45633 -0.04832,-0.91324 -0.07294,-1.36983 -0.04758,-0.74582 -0.08755,-1.49211 -0.138746,-2.23773 -0.08551,-1.21886 -0.146277,-2.43946 -0.216927,-3.65925 -0.07461,-1.73947 -0.263202,-3.471136 -0.403417,-5.20609 -0.238876,-2.623334 -0.497964,-5.244989 -0.704445,-7.871168 -0.256114,-2.966094 -0.659321,-5.916602 -1.231042,-8.839266 -0.617861,-3.338395 -1.375555,-6.64833 -2.043826,-9.976839 -0.275329,-1.345806 -0.498557,-2.718401 -0.820722,-4.053838 -0.06363,-0.26375 -0.166644,-0.516664 -0.236596,-0.778808 -0.09838,-0.368684 -0.141958,-0.645536 -0.20564,-1.005026 z" />
  <path
     style="fill:#000000;stroke:#000000;stroke-width:0;stroke-linecap:round"
     id="path30"
     d="m 63.836907,109.00986 c 0.547203,0.60432 1.32471,0.86254 2.084269,1.08389 0.251534,0.0521 0.500914,0.11588 0.754599,0.15619 0.476462,0.0756 1.154222,0.13001 1.637033,0.13067 5.260003,0.007 9.721613,0.15954 14.634183,-0.10255 1.548425,-0.0664 3.092786,-0.1943 4.640213,-0.28032 0.215904,-0.0105 1.350406,-0.0678 1.570598,-0.0732 0.260862,-0.007 1.043755,-0.004 0.782813,-0.004 -20.086285,0.0161 -14.085969,-0.068 -9.810052,0.0455 1.445859,0.0385 2.88884,0.14443 4.327598,0.28928 0.913321,0.0974 1.826785,0.19322 2.740779,0.28414 0.520805,0.051 1.041988,0.0979 1.563543,0.14046 0.217839,0.0182 0.435775,0.035 0.65383,0.0503 0,0 12.905587,-1.97711 12.905587,-1.97711 v 0 c -0.23658,-0.008 -0.47325,-0.0137 -0.70966,-0.0255 -0.57081,-0.0265 -1.14151,-0.0552 -1.711713,-0.0929 -0.99579,-0.067 -1.991164,-0.14 -2.985097,-0.23104 -1.50059,-0.13607 -3.000319,-0.27086 -4.505733,-0.34426 -5.703217,-0.19485 -11.421538,-0.29426 -17.11827,0.0649 -1.55723,0.0967 -3.114314,0.19325 -4.673076,0.26285 -4.282942,0.19037 -10.146892,0.0236 9.979769,0.0697 0.262185,7e-4 -0.52433,0.007 -0.786508,0.009 -0.244117,0.003 -0.488359,0.0119 -0.732364,0.004 -0.212109,-0.007 -0.423273,-0.0313 -0.63491,-0.0469 -0.51879,-0.10216 -1.049133,-0.1702 -1.509867,-0.44359 z" />
  <path
     style="fill:#000000;stroke:#000000;stroke-width:0;stroke-linecap:round"
     id="path31"
     d="m 75.562285,84.217637 c 0.0088,-0.385537 0.223064,-0.743565 0.408957,-1.078516 0.338271,-0.522079 0.660389,-1.053155 0.987422,-1.582344 0.347104,-0.744889 0.670439,-1.500707 1.036672,-2.236477 0.290319,-0.61356 0.565716,-1.234316 0.865541,-1.843312 0.246409,-0.526912 0.493993,-1.05423 0.773468,-1.564573 0.186009,-0.455848 0.47803,-0.854827 0.70387,-1.288906 0.215307,-0.38414 0.444994,-0.762504 0.634254,-1.16039 0.243788,-0.282846 0.379077,-0.627634 0.544918,-0.955959 0.173408,-0.315751 0.326127,-0.632924 0.470717,-0.964194 0.16895,-0.264909 0.333031,-0.533297 0.521536,-0.787624 0.176586,-0.280718 0.361155,-0.580395 0.607364,-0.806636 0.228071,-0.273249 0.444443,-0.558796 0.6764,-0.833047 0.168377,-0.283812 0.373263,-0.531156 0.568508,-0.798244 0.153803,-0.209545 0.355817,-0.37898 0.455722,-0.620376 0.08033,-0.08357 0.209703,-0.428543 0.337047,-0.408335 0.09895,-0.159271 0.200479,-0.324939 0.334905,-0.457353 0.150577,-0.143292 0.198817,-0.352359 0.293712,-0.534777 0.09236,-0.216309 0.07559,-0.489638 0.05719,-0.724508 0.02196,-0.313743 -0.08978,-0.540818 -0.209343,-0.805836 -0.270122,-0.246129 -0.143062,-0.105391 -0.292452,0.01477 -0.09496,-0.07996 -0.04656,-0.04576 -0.143781,-0.104559 0,0 -13.038305,1.543827 -13.038305,1.543827 v 0 c 0.08338,0.01739 0.04288,0.01551 0.121321,0.0084 0.106262,0.159915 0.09829,0.340752 0.29967,0.188233 0.03907,-0.195329 0.171805,-0.351497 0.09705,-0.572674 0.01294,-0.03652 0.06684,-0.349142 -0.0028,-0.196673 -0.07676,0.135784 -0.186445,0.178116 -0.267752,0.311051 -0.09721,0.145097 -0.189466,0.299356 -0.324122,0.413163 -0.09083,0.210841 -0.230495,0.381372 -0.340133,0.578171 -0.195409,0.115078 -0.261498,0.408736 -0.421713,0.564568 -0.166568,0.245434 -0.337332,0.489439 -0.528114,0.715213 -0.218443,0.282443 -0.450994,0.551636 -0.671135,0.831684 -0.202909,0.311015 -0.422787,0.610025 -0.616968,0.926593 -0.196379,0.323899 -0.395524,0.651377 -0.537099,1.003201 -0.143183,0.306165 -0.324697,0.593316 -0.462032,0.902984 -0.164668,0.321659 -0.370686,0.619957 -0.515588,0.952093 -0.21067,0.375365 -0.406512,0.758985 -0.616398,1.134857 -0.242948,0.431987 -0.448885,0.882422 -0.663428,1.328886 -0.244504,0.531712 -0.492173,1.061694 -0.723785,1.59914 -0.278536,0.615839 -0.552513,1.233774 -0.812998,1.857513 -0.303672,0.717671 -0.613779,1.440875 -1.073553,2.075381 -0.344171,0.55317 -0.730797,1.081704 -1.00656,1.674821 -0.271153,0.54342 -0.527036,1.10444 -0.655284,1.700693 z" />
</svg>
