<?xml version="1.0" encoding="UTF-8" standalone="no"?>
<!-- Created with Inkscape (http://www.inkscape.org/) -->

<svg
   width="109.28715mm"
   height="115.4245mm"
   viewBox="0 0 109.28715 115.4245"
   version="1.1"
   id="svg1"
   xmlns="http://www.w3.org/2000/svg"
   xmlns:svg="http://www.w3.org/2000/svg">
  <defs
     id="defs1" />
  <path
     style="fill:#000000;stroke:#000000;stroke-width:0;stroke-linecap:round"
     id="path26"
     d="m 7.1640695,4.1581337 c 0.3362749,1.2012627 0.4517032,2.4648953 0.56328,3.7051097 0.110195,1.7359823 0.1359283,3.4749906 0.1801106,5.2133566 0.057889,1.770072 0.033524,3.542228 -0.011087,5.312359 -0.013858,1.545841 -0.081594,3.091375 -0.1970114,4.632891 -0.080379,1.122666 -0.1694421,2.244508 -0.223287,3.368853 -0.064594,1.018518 -0.1273004,2.035352 -0.2302533,3.050711 -0.094871,0.949383 -0.190094,1.898572 -0.2818176,2.848238 -0.075734,0.753573 -0.1155008,1.509719 -0.1340039,2.266651 0.078611,1.634766 0.4065574,3.255922 0.6278383,4.876437 0.1158704,0.848488 0.2002357,1.700986 0.300351,2.551479 0.5410113,5.237124 0.7947423,10.505869 0.7992575,15.770765 0.00277,3.350153 -0.092271,5.199071 -0.2104818,8.519751 -0.2816328,5.832608 -0.7465464,11.654026 -1.1385972,17.479773 -0.2009999,2.899666 -0.397672,5.79967 -0.6069871,8.698746 -0.1118976,1.521707 -0.1769389,3.046202 -0.2466446,4.570268 -0.046353,0.894006 -0.1035165,1.78755 -0.1408936,2.681992 -0.025843,0.571396 -0.032231,1.143436 -0.062627,1.714586 -0.016973,0.27814 -0.011087,0.14059 -0.018056,0.41262 0,0 13.0069986,0.004 13.0069986,0.004 v 0 c -0.0053,-0.27159 -3.14e-4,-0.13421 -0.01547,-0.41212 -0.02654,-0.5704 -0.02871,-1.14153 -0.04856,-1.712183 -0.02794,-0.893557 -0.07426,-1.786495 -0.10807,-2.679854 -0.04813,-1.522796 -0.08814,-3.045988 -0.170095,-4.567455 -0.153465,-2.898954 -0.291152,-5.798777 -0.42987,-8.698466 -0.26654,-5.827273 -0.598574,-11.652003 -0.766839,-17.483319 -0.139804,-8.103764 -0.110327,-16.23365 0.930264,-24.286656 0.119592,-0.84888 0.22097,-1.700522 0.358756,-2.546637 0.262905,-1.614455 0.64282,-3.218904 0.785665,-4.849787 0.03261,-0.740663 0.05921,-1.481521 0.08693,-2.222389 0.03838,-0.939176 0.0929,-1.877823 0.188501,-2.813183 0.09693,-1.040702 0.176779,-2.08335 0.240444,-3.126574 0.02962,-1.12071 0.04646,-2.241675 0.07458,-3.362428 0.01763,-1.55674 -0.03961,-3.112158 -0.01227,-4.668871 0.0062,-1.787186 0.0699,-3.574177 0.03653,-5.361352 -0.04387,-1.748795 -0.123103,-3.4965435 -0.1854,-5.244712 -0.0092,-0.7820479 -0.01043,-1.5631495 0.0058,-2.3451406 0.0053,-0.253372 0.01214,-0.7379911 0.0555,-1.0040495 0.01634,-0.1001773 0.05462,-0.1955344 0.08191,-0.2933042 z" />
  <path
     style="fill:#000000;stroke:#000000;stroke-width:0;stroke-linecap:round"
     id="path27"
     d="m 45.002675,7.6324635 c 0.157879,0.6804307 0.130481,1.3883157 0.165146,2.0821693 0.06149,0.9957942 0.133417,1.9917552 0.222057,2.9855972 0.05712,1.398303 0.11005,2.797094 0.139735,4.196351 0.02487,1.46297 0.0168,2.926681 -0.01175,4.389557 -0.03327,1.305887 -0.0065,2.611715 0.02913,3.917156 -0.01547,2.037456 0.210894,4.064202 0.399978,6.089893 0.48667,5.573605 0.836731,11.15641 1.009505,16.748334 0.01082,1.690059 0.02871,5.803697 0.07349,7.477179 0.03627,1.355557 0.106658,2.709988 0.159982,4.064981 0.04255,1.427494 0.09083,2.854828 0.127643,4.282482 0.117283,4.547847 0.09643,4.350571 0.138123,8.913277 0.03081,6.993293 -0.311255,13.980538 -0.681477,20.961818 -0.175721,3.37307 -0.353362,6.746032 -0.548651,10.118032 -0.09655,1.54209 -0.159458,3.08597 -0.243635,4.62871 -0.0069,0.16674 -0.01369,0.33347 -0.0205,0.50021 0,0 12.722453,-0.0133 12.722453,-0.0133 v 0 c -0.01029,-0.1669 -0.02067,-0.33378 -0.031,-0.50067 -0.117745,-1.54301 -0.21572,-3.08752 -0.349573,-4.62929 -0.275477,-3.37124 -0.533973,-6.743817 -0.791099,-10.116498 -0.536486,-6.973909 -1.04534,-13.956173 -1.116734,-20.953422 -0.0034,-4.399988 0.02291,-8.797325 0.126271,-13.196345 0.03181,-1.354795 0.09284,-2.708874 0.116306,-4.063837 0.04315,-2.490796 -0.0055,-4.982614 0.04261,-7.473382 0.171931,-5.591995 0.521483,-11.174825 1.004657,-16.748753 0.187418,-2.026327 0.412403,-4.054026 0.388666,-6.092066 0.03003,-1.306879 0.04965,-2.614184 0.0028,-3.921032 -0.04377,-1.464961 -0.0691,-2.930746 -0.0732,-4.396342 -2.59e-4,-1.406758 0.01819,-2.813194 -10e-4,-4.219889 0.02964,-0.997833 0.0177,-1.997437 -0.03614,-2.994379 -0.01341,-0.6785895 -0.01623,-1.3718017 0.135155,-2.0365247 z" />
  <path
     style="fill:#000000;stroke:#000000;stroke-width:0;stroke-linecap:round"
     id="path28"
     d="m 57.647397,56.427118 c -0.63711,0.04374 -1.269385,0.01655 -1.905863,-0.02417 -0.74815,-0.05173 -1.496826,-0.09205 -2.246173,-0.12111 -0.893182,-0.02926 -1.786711,-0.04519 -2.680322,-0.05244 -1.234941,0.0017 -2.469229,-0.0046 -3.70335,-0.05068 -1.353824,-0.04875 -2.707781,-0.09434 -4.061923,-0.133361 -1.041421,-0.02877 -2.08284,-0.06103 -3.124649,-0.07056 -0.871463,-0.03627 -1.741143,-0.10481 -2.611872,-0.155214 -0.78561,-0.04477 -1.571999,-0.07408 -2.358423,-0.10015 -0.792579,-0.02881 -1.5857,-0.03164 -2.378644,-0.04078 -0.861902,-0.0048 -1.723755,-0.01544 -2.585653,-0.02008 -0.716836,-0.0049 -1.433682,-0.0084 -2.150514,-0.01396 -0.569308,-0.0028 -1.138618,-0.0057 -1.707929,-0.0081 -0.444847,-0.0021 -0.889699,-0.0034 -1.334543,-0.0063 -0.324514,-0.0025 -0.649047,-0.004 -0.973574,-0.0038 -0.29873,-0.0021 -0.597464,4.2e-5 -0.896198,-6.99e-4 -0.27357,-1.35e-4 -0.54715,-3.49e-4 -0.820716,-0.0025 -4.559649,0.02514 -9.306177,-1.129336 -13.6738622,0.184834 -0.140817,0.05312 -0.2859777,0.0569 -0.4332198,0.0704 0,0 12.971875,1.824172 12.971875,1.824172 v 0 c 0.138632,-0.03615 0.272857,-0.08714 0.417355,-0.09692 4.873667,-0.397393 -17.3019192,0.07584 -12.2043797,0.06407 0.283045,-0.0017 0.5661018,-0.0021 0.8491537,-0.0021 0.300186,-7e-4 0.600373,0.0015 0.900555,-2.66e-4 0.337703,3.28e-4 0.675406,-10e-4 1.013101,-0.0028 0.465071,-0.0021 0.930149,-0.0032 1.395223,-0.004 0.588832,-10e-4 1.177661,-0.0021 1.766492,-0.0025 0.743117,-0.0021 1.486242,-0.0021 2.229362,-0.001 0.86873,0.0028 1.737487,6.99e-4 2.606181,0.01029 0.772102,0.0054 1.544135,0.01854 2.31617,0.02983 0.802676,0.01418 1.605338,0.03122 2.407573,0.06205 0.886312,0.03537 1.772285,0.08035 2.656471,0.152567 1.091324,0.08723 2.189004,0.03509 3.28273,0.07428 1.355748,0.02504 2.711611,0.05184 4.066389,0.111211 1.187267,0.05171 2.372669,0.122483 3.561763,0.110472 0.859831,0.01201 1.719745,0.02026 2.579427,0.04113 0.744856,0.01848 1.489636,0.04216 2.233616,0.08373 0.557022,0.03359 1.106298,0.109298 1.660911,0.143701 z" />
  <path
     style="fill:#000000;stroke:#000000;stroke-width:0;stroke-linecap:round"
     id="path47"
     d="m 72.890419,79.688771 c 0.212608,-0.778846 0.869278,-1.336858 1.441056,-1.859632 1.524031,-1.278337 3.358089,-2.087044 5.225444,-2.720784 0.340698,-0.08342 0.677015,-0.187368 1.02209,-0.250272 0.329142,-0.06 0.662819,-0.09745 0.996768,-0.117745 0.316534,-0.01923 1.268452,-0.004 0.951351,-5.29e-4 -2.72466,0.02566 -5.449323,0.05133 -8.173984,0.07699 0.262295,0.05797 0.533056,0.086 0.786884,0.173924 0.26693,0.09246 0.510281,0.242533 0.765421,0.363799 0.253966,0.195514 0.527362,0.368099 0.761899,0.586542 1.175491,1.094827 1.970726,2.613138 2.518614,4.101462 0.150334,0.408374 0.266983,0.828373 0.400473,1.242563 0.668822,2.482233 0.365443,4.865065 -0.491368,7.261354 -0.199919,0.559123 -0.447625,1.099984 -0.671436,1.649976 -1.550767,3.551941 -3.847131,6.675411 -6.267664,9.67269 -1.285367,1.592761 -2.725052,3.047941 -4.329348,4.319221 -0.793144,0.62851 -1.223658,0.91012 -2.042959,1.48033 -1.328391,0.90859 -2.745557,1.68345 -4.045513,2.63364 -0.157438,0.1673 -0.328549,0.30071 -0.392531,0.5329 -0.05976,0.21687 -0.02619,1.09505 0.260953,1.10255 3.317695,0.0866 6.637502,0.0445 9.956255,0.0667 1.221222,-0.17761 2.457448,-0.21598 3.68884,-0.26878 2.83325,-0.0955 5.667663,-0.14298 8.502218,-0.17659 3.08256,-0.0285 6.165276,-0.0323 9.247934,-0.0251 1.510231,0.004 0.775906,0.002 2.202976,0.007 0,0 -8.95613,-1.41348 -8.95613,-1.41348 v 0 c -1.271029,0.0202 -0.614857,0.0101 -1.968518,0.0302 -2.931531,0.0434 -5.863225,0.0744 -8.794964,0.0998 -3.027585,0.0226 -6.05563,0.0292 -9.082482,0.1052 -1.493732,0.0329 -2.986765,0.11039 -4.480028,0.12212 3.149999,0.0235 6.299996,0.047 9.449993,0.0705 -0.03272,0.0503 -0.08287,0.0928 -0.09816,0.15084 -0.03724,0.14124 -0.03152,0.29061 -0.05619,0.43458 -0.01066,0.0623 -0.03973,0.12052 -0.04961,0.18292 -0.01193,0.0753 0.271084,-0.62388 0.138615,-0.18197 1.006105,-1.00042 2.224411,-1.75089 3.313944,-2.65382 2.181981,-1.78807 4.242736,-3.72756 5.831734,-6.07993 2.252345,-3.17364 4.481261,-6.386949 6.221915,-9.877457 0.256958,-0.572021 0.536205,-1.134541 0.770874,-1.716061 0.629835,-1.560761 1.092901,-3.209896 1.16092,-4.901737 0.04935,-1.227558 -0.09403,-1.700123 -0.297394,-2.89066 C 87.600291,78.657811 86.75036,76.246563 85.007568,74.431754 84.757463,74.235941 84.52958,74.00782 84.257257,73.84431 83.998064,73.688685 83.727808,73.495428 83.42578,73.482017 80.126249,73.335498 76.820881,73.368992 73.5181,73.367428 c -0.980146,-5.29e-4 -1.941618,0.363262 -2.859413,0.652217 -1.978024,0.787368 -3.920661,1.723662 -5.61482,3.028354 -0.810533,0.716484 -1.647119,1.496319 -2.065541,2.517611 z" />
</svg>
