<?xml version="1.0" encoding="UTF-8" standalone="no"?>
<!-- Created with Inkscape (http://www.inkscape.org/) -->

<svg
   width="99.044991mm"
   height="113.32665mm"
   viewBox="0 0 99.044991 113.32665"
   version="1.1"
   id="svg1"
   xmlns="http://www.w3.org/2000/svg"
   xmlns:svg="http://www.w3.org/2000/svg">
  <defs
     id="defs1" />
  <rect
     style="fill:#ffffff;fill-opacity:0.851124;stroke:#000000;stroke-width:0;stroke-linecap:round"
     id="rect135"
     width="81.21006"
     height="54.951"
     x="12.087872"
     y="33.199085" />
  <path
     style="fill:#000000;fill-opacity:1;stroke:#000000;stroke-width:0;stroke-linecap:round"
     d="m 12.428375,65.88741 c 0.658358,-1.255898 1.480546,-2.446565 2.383523,-3.575285 0.319531,-0.399413 1.677162,-2.200595 2.043021,-2.383523 0.346025,-0.173014 2.585533,1.470956 2.894279,1.702517 0.768435,0.576326 1.123528,1.14903 1.702517,1.872768 0.748982,0.936226 1.591941,1.81936 2.383524,2.724026 1.814455,2.073664 3.227781,4.463857 5.448056,6.129062 0.389212,0.29191 0.879011,0.865135 1.19176,1.021511 0.113501,0.05675 0.04335,0.340503 0.170254,0.340503 0.47186,0 1.269399,-1.439653 1.532263,-1.702517 1.426934,-1.426935 2.750991,-3.058088 4.256293,-4.426545 0.819333,-0.744847 1.775614,-1.435111 2.553777,-2.213271 0.344138,-0.344138 1.197653,-1.530303 1.702517,-1.362014 0.724027,0.241342 -0.192952,0.0681 0.170252,0.340502 1.044564,0.783424 2.12513,1.643759 3.234782,2.383526 2.313109,1.542074 4.748377,3.047415 6.810068,4.937299 0.08478,0.07771 4.232452,4.256292 4.256291,4.256292 0.116526,0 0.938718,-1.578325 1.021512,-1.702517 0.689774,-1.034659 1.158965,-2.223559 1.872768,-3.234783 0.96597,-1.368454 1.307158,-1.559023 2.213271,-2.724026 0.258408,-0.332239 0.397172,-0.567422 0.681009,-0.851259 0.08973,-0.08973 0.04335,-0.340503 0.170251,-0.340503 0.659162,0 1.480119,1.60129 1.872769,2.04302 0.589639,0.663344 0.978122,1.37805 1.532265,2.043019 1.145379,1.374455 2.356051,2.617468 3.405034,4.086043 0.659741,0.923636 1.817502,3.046108 2.89428,3.405034 0.439555,0.146518 0.793816,-0.170252 1.191763,-0.170252 1.588209,0 3.372879,-0.250018 4.937296,-0.510754 1.076254,-0.179377 2.242302,0.160576 3.234783,-0.170254 0.517242,-0.172413 1.042988,0.170254 1.532266,0.170254 1.917768,0 3.622714,-0.03628 5.448056,-0.340505 0.668457,-0.111408 1.226111,0.0453 1.872769,-0.170252 0.816086,-0.272029 2.217959,0 3.064531,0 0.202829,0 1.150014,-0.253746 1.19176,-0.170251 0.05503,0.110064 -0.200134,4.856694 -0.340503,5.277802 -0.112242,0.336725 0.340503,2.330929 0.340503,2.89428 0,0.459811 0.149836,1.382432 -0.170252,1.702517 -0.07421,0.07421 -2.304539,0.510756 -2.724025,0.510756 -1.31096,0 -4.430449,0.114802 -5.618309,0.510754 -1.003742,0.334581 -6.061397,0.04758 -7.15057,-0.170252 -1.092583,-0.218516 -4.184,0.570778 -5.277803,0.340504 l -3.234782,-0.681007 c -0.509251,-0.107211 -2.303126,-0.19705 -2.894279,10e-7 -1.340162,0.44672 -2.485731,-0.06809 -3.915791,0.17025 -1.44286,0.240477 -2.394837,0.08701 -3.915787,0.340505 -1.074208,0.179033 -3.390984,-0.0223 -4.426545,-0.170251 -1.148881,-0.164127 -2.776048,0.05769 -3.915791,-0.170254 -1.55712,-0.311423 -2.807403,-0.487696 -4.426542,-0.340503 -1.132139,0.102923 -2.943618,0.577151 -4.086041,0.681006 -2.471119,0.224647 -4.382433,-0.655778 -6.81007,-0.170249 -1.521483,0.304294 -3.231861,-0.219313 -4.767048,0 -1.617726,0.231103 -3.964401,1.062056 -5.618306,0.510754 -0.88783,-0.295944 -1.938497,0.0209 -2.894279,-0.170251 -3.13393,-0.626788 -6.254162,-0.170254 -9.534095,-0.170254"
     id="path135" />
  <path
     style="fill:#000000;fill-opacity:1;stroke:#000000;stroke-width:0;stroke-linecap:round"
     d="m 79.84805,48.521736 c -0.255315,-1.268053 -1.842823,-2.167927 -3.064531,-2.383523 -4.286295,-0.756407 -8.756372,1.35495 -10.896108,5.277802 -0.530849,0.973223 -0.68531,2.156124 -0.85126,3.234783 -0.161268,1.048253 -0.381605,2.348256 -0.170251,3.405034 0.44555,2.227747 2.107057,4.36607 3.234783,6.299314 1.103976,1.89253 2.283901,3.623053 4.426545,4.426545 1.574091,0.590283 3.438538,0.18098 4.937299,-0.510757 1.353535,-0.624708 2.581236,-1.04897 3.575286,-2.04302 0.321633,-0.321633 0.522118,-1.34502 0.681006,-1.702517 1.257768,-2.829975 1.832938,-5.980663 2.213274,-9.023339 0.327752,-2.622021 -0.143354,-4.740151 -1.872769,-6.469565 -0.266787,-0.266788 -0.558464,-0.704861 -0.85126,-0.85126 -0.281421,-0.140711 -1.496949,-1.227077 -1.872768,-0.851257 -0.538258,0.538255 0.04141,0.957085 0.510754,1.19176 z"
     id="path136" />
</svg>
