<?xml version="1.0" encoding="UTF-8" standalone="no"?>
<!-- Created with Inkscape (http://www.inkscape.org/) -->

<svg
   width="109.28714mm"
   height="115.4245mm"
   viewBox="0 0 109.28714 115.4245"
   version="1.1"
   id="svg1"
   xmlns="http://www.w3.org/2000/svg"
   xmlns:svg="http://www.w3.org/2000/svg">
  <defs
     id="defs1" />
  <path
     style="fill:#000000;stroke:#000000;stroke-width:0;stroke-linecap:round"
     id="path53"
     d="m 4.0297344,106.34192 c 1.4044852,0.95529 2.9606864,0.69022 4.9478702,0.74614 4.1186234,0.0615 17.2305574,0.35662 25.8316424,-0.25586 6.766846,-0.10537 12.611221,0.20583 18.923375,0.007 6.088957,-0.18072 20.871866,1.04582 23.065196,-0.83041 -1.117733,-1.79176 -2.84719,-1.23359 -5.093227,-2.08 l -4.121783,-0.41043 h -3.780774 c -0.689543,0 -2.230363,-0.31769 -4.907605,-0.24622 -5.857796,0.1599 -11.676986,-0.004 -17.534306,0.17186 -6.501428,0.20938 -8.338476,-0.0633 -14.830743,0.34178 -2.224267,0.12386 -4.553242,0.096 -6.886777,0.12151 -0.914375,0.01 -2.866254,0.21858 -6.029669,0.46572 -2.209152,0.32179 -6.9488849,0.58773 -8.721233,0.76978 z" />
  <path
     style="fill:#000000;stroke:#000000;stroke-width:0;stroke-linecap:round"
     id="path55"
     d="m 41.124497,105.32895 c 0.568748,-2.82563 1.271854,-5.619037 2.037838,-8.399282 0.337842,-1.157694 0.64196,-2.325244 1.013529,-3.473089 0.590004,-1.822652 2.417133,-6.762674 3.033168,-8.412946 1.769261,-4.739619 2.435482,-6.539577 4.474602,-11.32829 0.923724,-2.169286 1.900049,-4.31695 2.85007,-6.475426 5.917622,-12.861648 12.242747,-25.543501 18.754978,-38.128172 3.137125,-6.036983 6.362548,-12.029448 9.59348,-18.019028 0,0 -11.956464,-0.521529 -11.956464,-0.521529 v 0 c -2.689739,6.038724 -5.399583,12.068987 -8.143455,18.084572 -5.906142,12.794925 -11.996754,25.510777 -18.208112,38.167248 -2.844349,5.6951 -3.438391,6.88922 -6.234024,12.469017 -0.888487,1.773338 -1.804184,3.533935 -2.667901,5.318859 -1.933264,3.995204 -2.059438,4.539191 -3.816295,8.421703 -0.526412,1.163333 -1.075757,2.316681 -1.613636,3.475024 -1.216176,2.770015 -2.314909,5.627329 -3.866692,8.239099 z" />
  <path
     style="fill:#000000;stroke:#000000;stroke-width:0;stroke-linecap:round"
     id="path56"
     d="m 52.921114,13.724491 c 2.149425,-0.03892 8.465755,0.08751 9.553241,0.05307 1.519148,-0.0449 2.328504,0.04966 3.871971,0.09564 2.137475,0.02143 3.690626,0.218488 5.972733,-2.179206 2.311097,-0.105295 4.624124,2.140303 6.937071,2.091859 2.252924,-0.04357 3.496517,0.0365 6.682746,0.08993 1.84004,-0.14466 3.613742,0.167886 7.175695,-0.08822 1.923641,0.04247 3.27228,-0.119759 4.692834,-0.135019 1.387821,-0.417908 2.053268,-0.296999 3.057405,-0.653043 1.14386,-0.175564 1.68893,-0.273473 2.69101,-0.587189 0.66524,-0.03583 1.31578,-0.142876 1.72203,-0.982842 -0.60615,-0.763038 -1.33395,-0.858263 -2.08459,-1.149609 -0.958,-0.3511767 -1.57076,-0.6535907 -2.92913,-0.9133754 l -9.58442,-0.6496167 3.992616,0.3279617 c 0.885194,0.07271 -4.400845,-0.3252017 -4.604968,-0.3252017 -0.53183,0.0041 -1.063672,0.0061 -1.595521,0.0071 -0.617136,0.0023 -1.234261,0.007 -1.851399,0.0097 -0.701971,0.0057 -1.403916,0.01421 -2.105837,0.0239 -1.004023,0.01305 -2.007991,0.02947 -3.011919,0.04824 -1.377327,0.02648 -2.75456,0.05781 -4.13151,0.09926 -1.794393,0.05462 -3.588341,0.1227137 -5.38155,0.2067507 -2.211933,0.105295 -4.423593,0.227137 -6.638464,0.255265 -2.331181,0.05152 -4.662156,0.1198857 -6.990557,0.2455397 -2.076586,0.118653 -4.157212,0.242134 -6.213176,0.5651387 -1.410724,0.236329 -5.863326,0.09075 -5.916791,1.446294 0.708973,1.203994 2.142078,1.811159 3.886287,2.256539 z" />
</svg>
