<?xml version="1.0" encoding="UTF-8" standalone="no"?>
<!-- Created with Inkscape (http://www.inkscape.org/) -->

<svg
   width="99.044991mm"
   height="113.32665mm"
   viewBox="0 0 99.044991 113.32665"
   version="1.1"
   id="svg1"
   xmlns="http://www.w3.org/2000/svg"
   xmlns:svg="http://www.w3.org/2000/svg">
  <defs
     id="defs1" />
  <path
     style="fill:#000000;stroke:#000000;stroke-width:0;stroke-linecap:round"
     d="m 45.602101,48.723674 c -1.396971,0.615643 -0.103217,0.141922 0,0 0.252436,-0.347099 0.225666,-0.832565 0.407162,-1.221484 0.558755,-1.197334 1.597099,-2.106527 2.442969,-3.121572 1.377802,-1.65336 2.735747,-3.303641 4.343059,-4.750221 1.516872,-1.365184 0.283903,-0.01871 0.814321,-0.814321 0.09048,-0.135721 0.407162,-0.108326 0.407162,-0.271442 0,-0.47159 -2.09746,-1.776677 -2.442969,-2.03581 -2.56576,-1.924319 -5.738468,-1.685636 -8.821835,-1.492924 -3.493281,0.218329 -7.090349,0.570166 -10.31476,2.035807 -5.812928,2.64224 -11.784483,8.30081 -15.607863,13.300615 -0.959051,1.254143 -1.719581,2.618592 -2.57869,3.935894 -2.568053,3.93768 -5.0142659,7.937624 -6.3788656,12.48629 -1.0028721,3.342907 -1.5909258,7.795977 -1.764367,11.264805 -0.072161,1.443209 0.09013,2.900976 0,4.343056 -0.3266025,5.22564 0.038867,10.616787 3.3930134,14.92926 1.1315202,1.454811 2.8928532,2.19289 4.4787782,2.985853 0.888472,0.44423 1.836335,0.95904 2.850131,1.08576 5.146792,0.64335 10.668764,-1.840139 15.06498,-4.207334 1.542325,-0.830482 3.122033,-1.510178 4.614497,-2.442969 0.816449,-0.510281 1.507856,-1.236411 2.171531,-1.900087 0.549423,-0.549426 1.452973,-1.016061 2.035807,-1.492927 0.741588,-0.606753 1.455537,-1.26365 2.171528,-1.900087 1.510851,-1.34298 3.0826,-2.622838 4.6145,-3.935896 0.802418,-0.687787 1.481553,-1.518706 2.171528,-2.307249 1.834187,-2.096214 3.57286,-4.115263 5.15738,-6.378866 0.831565,-1.18795 1.803316,-2.288135 2.57869,-3.528732 0.659255,-1.054809 1.211213,-2.150983 1.764366,-3.257293 0.298458,-0.596914 0.750814,-1.178203 1.085766,-1.764369 0.234151,-0.409766 0.331176,-0.933791 0.542882,-1.357204 0.625859,-1.251717 1.056471,-2.083652 1.492925,-3.393014 0.0716,-0.214789 0.725112,-1.853581 0.678603,-1.900087 -0.0076,-0.0076 -0.474583,0.373013 -0.814324,0.54288 -0.564835,0.282419 0.145093,-0.0094 -0.13572,0.271442 -0.237072,0.237074 -0.776349,0.446542 -1.085763,0.678603 -0.86781,0.650856 -1.609222,1.415354 -2.57869,1.900087 -0.668589,0.334295 -1.347716,0.513842 -2.171531,0.678603 -0.974402,0.194881 -1.875726,0.755163 -2.850131,0.950045 -0.847931,0.169587 -1.779148,0.140647 -2.57869,0.407162 -0.878186,0.292729 -2.212843,-0.710073 -2.714411,-0.542883 -0.264324,0.08811 -0.168208,0.743582 -0.271441,0.950045 -0.208066,0.416131 -0.236119,0.708361 -0.407159,1.221483 -0.347022,1.041064 -1.129874,2.305553 -1.764369,3.257293 -0.78931,1.183966 -1.83067,2.196182 -2.57869,3.393014 -1.263438,2.021502 -2.494761,4.016534 -4.071617,5.835984 -1.820471,2.100542 -4.102031,3.639491 -6.378864,5.15738 -0.582808,0.388538 -1.173358,0.92598 -1.764368,1.221486 -2.032013,1.016005 -5.141443,1.647602 -7.464629,1.357204 -1.815567,-0.226947 -5.864152,-1.413545 -6.786027,-3.257294 -0.175629,-0.351258 -0.312713,-0.627806 -0.542882,-0.950042 -0.395816,-0.554143 -0.750246,-1.069448 -1.085765,-1.628648 -0.709226,-1.182044 -0.814323,-3.689008 -0.814323,-5.021659 0,-0.804931 -0.248427,-1.969127 0,-2.714411 0.260616,-0.781849 0.185299,-1.629473 0.407162,-2.442969 0.838372,-3.07403 1.906818,-6.118643 3.528734,-8.821835 0.694298,-1.157166 1.06656,-2.501445 1.764367,-3.664456 0.88828,-1.480465 2.030327,-2.843278 3.121572,-4.207338 0.692775,-0.865968 1.263842,-1.823664 1.900088,-2.71441 1.038517,-1.453923 2.630256,-2.990596 4.071616,-4.071615 0.646192,-0.484645 1.465408,-1.004147 2.171528,-1.357207 0.185822,-0.09291 4.709075,-0.6786 5.021659,-0.6786 0.06398,0 0.07174,0.13572 0.135721,0.13572 1.071653,0 3.735562,-0.60966 4.750221,-0.271441 0.650433,0.21681 2.538775,0.502968 2.985852,0.950042 0.217908,0.217908 0.598932,0.63877 0.950042,0.814324 0.217905,0.108953 0.460698,-0.162488 0.678603,-0.271441 z"
     id="path2" />
  <path
     style="fill:#000000;stroke:#000000;stroke-width:0;stroke-linecap:round"
     d="m 29.930255,51.364829 c 0.326969,0.0795 -0.879419,0.153109 -0.879419,-0.148999 0,-0.01992 0.837072,-0.569089 0.879419,-0.595996 1.706343,-1.084133 3.978669,-1.905142 5.862794,-2.383979 0.196428,-0.04992 1.025989,-0.601416 1.025989,-0.148999 0,1.30271 0.182868,2.66283 0.879418,3.724969 0.350247,0.534076 0.784373,0.648373 1.172559,1.042994 0.356224,0.362127 0.720393,0.881325 1.025991,1.191987 0.06142,0.06244 0.350877,0.103849 0.439709,0.148999 0.504791,0.256579 0.9758,0.644986 1.465697,0.893994 2.215448,1.126081 6.942098,0.705863 9.2339,0.446996 4.020449,-0.454119 6.009581,-0.354009 9.67361,-2.681976 3.345316,-2.125473 4.892502,-5.389784 7.181922,-8.492933 0.813624,-1.102808 1.688319,-1.891063 2.491688,-2.979975 0.191753,-0.259905 0.589714,-0.453979 0.73285,-0.744992 0.572701,-1.164387 1.298503,-2.342047 1.905407,-3.575971 0.750913,-1.526715 3.582158,-5.483198 3.224536,-7.30094 -0.313679,-1.594377 -1.03573,-4.042772 -1.758837,-5.512953 -0.281402,-0.572128 -0.767921,-1.114297 -1.025989,-1.638988 -0.220564,-0.448435 -1.941068,-1.284614 -2.345117,-1.489988 -3.360177,-1.70793 -8.617656,-0.618843 -11.579021,1.638987 -2.276909,1.735983 -3.656454,4.611044 -5.716222,6.704944 -0.547581,0.556657 -2.086487,2.361199 -2.931397,2.532978 -1.320107,0.2684 -2.789105,-0.118328 -4.103954,0.148999 -0.994534,0.202205 -1.904781,0.50112 -2.9314,0.595996 -0.797604,0.07371 -1.666692,0.595995 -2.491685,0.595995 -0.142842,0 -0.844765,0.376536 -0.732848,0.149 0.522075,-1.061458 1.154725,-1.962478 1.905406,-2.979976 0.549941,-0.745404 0.934539,-1.628031 1.465698,-2.383979 0.478067,-0.680386 1.03383,-1.497957 1.612269,-2.085985 0.12456,-0.126625 0.326937,-0.160429 0.43971,-0.297998 0.139876,-0.170632 0.156648,-0.422551 0.29314,-0.595992 1.052234,-1.337092 2.694293,-3.030613 3.957384,-4.171968 1.395981,-1.261433 3.041604,-2.16746 4.543666,-3.277972 1.578562,-1.167071 3.272198,-2.420774 5.129943,-3.128974 3.168826,-1.208003 6.478936,-1.526707 9.82018,-1.787985 1.067621,-0.08349 2.14181,-0.259066 3.224538,-0.148999 2.850725,0.289796 6.122428,1.462737 8.354479,3.277972 1.679995,1.366267 2.722837,3.535909 3.371108,5.512955 0.923016,2.814939 1.306025,5.159198 0.879419,8.194932 -0.09744,0.693404 -0.36196,1.374641 -0.43971,2.085982 -0.335754,3.071876 -1.141404,5.449613 -2.491687,8.194933 -0.775413,1.576526 -1.405448,3.266867 -2.345117,4.767959 -0.66786,1.066885 -1.505348,2.071944 -2.198549,3.128975 -0.394938,0.602228 -0.64243,1.330453 -1.025987,1.936985 -0.504335,0.797521 -1.174923,1.641989 -1.758841,2.38398 -1.659474,2.108721 -4.009009,3.31296 -6.155932,4.76796 -1.017272,0.689422 -1.955044,1.424296 -2.931396,2.085985 -1.454854,0.985973 -3.160442,1.677648 -4.690234,2.532977 -1.543088,0.862763 -3.026072,2.047577 -4.690237,2.681978 -0.727384,0.27729 -1.740933,0.416419 -2.491687,0.595996 -2.441406,0.583968 -4.735888,1.224559 -7.181923,1.638985 -3.575045,0.605717 -6.648423,1.835658 -9.966747,0.148999 -2.489352,-1.2653 -4.175729,-3.747244 -5.569656,-6.108949 -0.560869,-0.950276 -0.727547,-2.077899 -1.319127,-2.979976 -0.552278,-0.842141 -0.864521,-1.608695 -1.319129,-2.532978 -0.538389,-1.094621 -1.365756,-2.180782 -1.905407,-3.277974 -0.254441,-0.517313 2.287382,-1.295832 3.077966,-0.893994 0.0437,0.02222 0.16842,-0.04442 0.14657,0 -0.109247,0.222117 -0.293139,0.397333 -0.43971,0.595997 z"
     id="path3" />
</svg>
