<?xml version="1.0" encoding="UTF-8" standalone="no"?>
<!-- Created with Inkscape (http://www.inkscape.org/) -->

<svg
   width="109.28715mm"
   height="115.4245mm"
   viewBox="0 0 109.28715 115.4245"
   version="1.1"
   id="svg1"
   xmlns="http://www.w3.org/2000/svg"
   xmlns:svg="http://www.w3.org/2000/svg">
  <defs
     id="defs1" />
  <path
     style="fill:#000000;stroke:#000000;stroke-width:0;stroke-linecap:round"
     id="path6"
     d="m 36.156474,34.615384 c 0.09845,0.07394 0.215494,0.122576 0.295357,0.221836 0.729907,0.907177 1.103993,2.363394 1.409424,3.492673 0.439303,1.624241 0.760256,3.305388 1.104169,4.956437 1.111111,6.273645 1.991553,12.621669 2.517813,18.998183 0.117219,1.420257 0.19341,2.844598 0.290116,4.266896 0.626102,7.214973 0.592317,14.46789 0.422168,21.705927 -0.04793,2.205506 -0.123489,4.409983 -0.199323,6.614384 0,0 12.687817,-0.04024 12.687817,-0.04024 v 0 C 54.502204,92.625133 54.320506,90.418752 54.14907,88.21129 53.556114,80.960051 53.00088,73.704997 52.508744,66.443707 52.388883,65.019632 52.254661,63.597056 52.149175,62.171476 51.784569,57.243929 51.940074,58.478233 51.659419,53.627267 51.450168,50.010494 51.389828,49.804941 51.14552,46.283409 51.07149,45.216358 51.008749,44.148319 50.940367,43.080774 50.766308,39.873897 50.684809,36.642486 50.259776,33.464122 Z" />
  <path
     style="fill:#000000;stroke:#000000;stroke-width:0;stroke-linecap:round"
     id="path7"
     d="m 49.664136,32.057731 c 0.07219,-0.04407 0.13944,-0.101143 0.216594,-0.132168 0.591276,-0.237851 1.275736,-0.356914 1.882758,-0.501499 1.334353,-0.317822 1.275449,-0.291783 2.717627,-0.582691 3.367791,-0.600342 6.759261,-1.041436 10.164512,-1.212912 -3.816352,0.01938 -7.632916,0.0082 -11.449056,0.05814 -0.405301,0.0053 0.811113,0.0269 1.214195,0.0759 0.826053,0.10042 1.568795,0.273994 2.348027,0.612607 1.07458,0.466954 1.290591,0.706203 2.255119,1.413307 2.090821,1.829178 3.862417,4.235379 4.952019,7.004757 0.24287,0.617287 0.412027,1.269527 0.618044,1.904288 0.738807,3.210009 0.843208,6.63762 -0.0049,9.840936 -0.150587,0.568794 -0.365077,1.112562 -0.547613,1.668845 -1.117413,2.701399 -2.989472,4.723965 -5.261266,6.138616 -0.451127,0.280915 -0.928584,0.501879 -1.392875,0.75282 -2.503284,1.189922 -5.166938,1.792379 -7.82104,2.338031 -1.167275,0.227222 -2.34531,0.320053 -3.525578,0.392865 0,0 13.403295,2.311668 13.403295,2.311668 v 0 c 1.10264,-0.143583 2.200899,-0.329094 3.282248,-0.621898 2.521477,-0.685941 5.037965,-1.480905 7.366517,-2.817567 0.468622,-0.305034 0.952344,-0.581241 1.405863,-0.915095 2.436421,-1.79356 4.167167,-4.013269 5.277667,-7.098603 0.165169,-0.618146 0.364501,-1.225565 0.495507,-1.854447 0.725064,-3.480678 0.509294,-7.139338 -0.145727,-10.603768 -0.42263,-1.607501 -0.586479,-2.514266 -1.265523,-4.001589 -0.260799,-0.571231 -0.592045,-1.096356 -0.902761,-1.633543 -0.877169,-1.516521 -1.837607,-2.962938 -2.980048,-4.231447 -1.068537,-0.961351 -2.095559,-1.881513 -3.388201,-2.420162 -4.710831,-1.96302 -15.632742,1.264647 -16.695389,-0.54195 -3.342336,0.336345 -6.666825,0.860517 -9.991334,1.375048 -1.491121,0.236234 -2.98258,0.46973 -4.473524,0.707434 -0.470582,0.07503 -0.937704,0.184012 -1.411033,0.230901 -0.117234,0.01166 -0.235331,-0.0026 -0.352998,-0.0035 z" />
</svg>
