<?xml version="1.0" encoding="UTF-8" standalone="no"?>
<!-- Created with Inkscape (http://www.inkscape.org/) -->

<svg
   width="109.28715mm"
   height="115.4245mm"
   viewBox="0 0 109.28715 115.4245"
   version="1.1"
   id="svg1"
   xmlns="http://www.w3.org/2000/svg"
   xmlns:svg="http://www.w3.org/2000/svg">
  <defs
     id="defs1" />
  <path
     style="fill:#000000;stroke:#000000;stroke-width:0;stroke-linecap:round"
     id="path9"
     d="m 28.540255,13.440098 c -0.121079,1.076165 -0.602093,2.094884 -0.986352,3.096722 -1.477375,3.256457 -3.327041,6.322724 -5.108648,9.417252 -2.103491,3.689647 -3.995193,7.49364 -5.696506,11.383788 -1.316393,3.090636 -2.305421,6.30955 -2.951195,9.606539 -0.117251,0.598617 -0.201377,1.203253 -0.302066,1.804877 -0.435982,2.748727 -0.650393,5.528251 -0.551016,8.309624 0.183207,1.504781 0.448542,3.088592 1.415412,4.31337 0.183416,0.232341 0.404179,0.432591 0.60627,0.648886 1.028831,0.978031 2.250265,1.68802 3.582786,2.156981 4.264889,0.890784 9.429095,1.965894 12.954327,-0.793357 0.491044,-0.384348 0.658339,-0.589919 1.094704,-1.04173 1.057894,-1.11138 1.865773,-2.430935 2.547111,-3.798356 0.519128,-1.034638 0.860478,-2.130638 1.071908,-3.264883 0.131369,-0.783253 0.06293,-1.54559 -0.192574,-2.292211 -0.207457,-0.619493 -0.591326,-1.081176 -1.110843,-1.46169 -5.39886,-2.286029 -9.504604,-2.059931 -13.012078,0.962242 -0.752511,0.59773 -1.401631,1.307846 -1.996972,2.058926 -0.470375,0.625438 -0.842089,1.317651 -1.186723,2.018294 -0.298339,0.565247 -0.522599,1.164367 -0.745345,1.76215 -0.175181,0.518996 -0.193305,1.04518 -0.113362,1.581891 0.035,0.199936 0.414229,1.023225 0.64457,1.031594 11.149149,0.405193 8.646272,2.877944 11.504115,-0.107273 0.536803,-0.672138 0.87804,-1.47422 1.184059,-2.271828 0.213186,-0.54432 0.288526,-1.113954 0.324808,-1.692154 0.01589,-0.179528 0.01526,-0.35745 0.007,-0.537133 0,0 -11.180672,0.14036 -11.180672,0.14036 v 0 c 0.04116,0.124475 0.03966,0.252761 0.05023,0.382906 0.02148,0.446341 -0.01677,0.888343 -0.17577,1.310799 -0.209442,0.570289 -0.478499,1.26796 -1.165576,1.337824 -3.653457,-1.192364 -0.596723,-0.166611 10.464864,0.110123 0.06593,0.0018 -0.120471,0.05805 -0.185575,0.06855 -0.102037,0.01646 -0.242667,-0.02562 -0.340895,-0.05263 -0.170578,-0.271241 -0.03261,-0.653351 0.03283,-0.937149 0.174867,-0.559821 0.399123,-1.101618 0.666983,-1.623571 0.313091,-0.628752 0.660733,-1.241978 1.114553,-1.781884 0.551645,-0.670818 1.160856,-1.292564 1.892686,-1.769595 0.387571,-0.222193 0.752566,-0.442528 1.208207,-0.4873 0.117571,-0.01155 0.472483,0.0076 0.354344,0.0071 -10.692031,-0.04113 -14.021995,0.688508 -10.311366,-0.102738 0.509372,-0.107828 0.789672,0.07755 1.048803,0.512822 0.309985,0.509612 0.386085,1.07727 0.333818,1.669472 -0.109286,1.0173 -0.412383,1.998874 -0.832797,2.930807 -0.64009,1.262281 -1.375006,2.471803 -2.458404,3.409424 -0.540563,0.42093 -1.077806,0.840092 -1.74265,1.051306 -0.19016,0.06041 -0.785993,0.116553 -0.586493,0.11966 9.416009,0.146617 13.42727,-0.448467 9.485613,0.108936 -0.194465,-0.02146 -0.39154,-0.02609 -0.583398,-0.06441 -1.149749,-0.229626 -2.193221,-0.85777 -3.14884,-1.504658 -0.460058,-0.380637 -0.705209,-0.532309 -1.055144,-1.02127 -0.664924,-0.9291 -0.931066,-2.083583 -1.173229,-3.176483 -0.36863,-2.677405 -0.41658,-5.390101 -0.144108,-8.081058 0.194929,-1.527789 0.232996,-2.057516 0.549845,-3.582531 0.54151,-2.606314 1.430001,-5.124833 2.431098,-7.586428 1.676828,-3.865656 3.506544,-7.665516 5.694571,-11.272327 1.904728,-3.192461 3.92083,-6.314052 5.988534,-9.403338 0.749742,-1.068748 0.584473,-0.798065 1.176238,-1.749649 0.247026,-0.397233 0.455171,-0.850324 0.739618,-1.224167 0.03162,-0.04155 0.07445,-0.07324 0.111684,-0.109852 z" />
  <path
     style="fill:#000000;stroke:#000000;stroke-width:0;stroke-linecap:round"
     id="path10"
     d="m 50.620129,17.580075 c -0.100035,1.042611 -0.387116,2.061502 -0.633155,3.077073 -0.688707,2.220032 -1.42529,4.423768 -2.316166,6.571145 -1.267765,3.298529 -2.706953,6.527079 -4.179089,9.738367 -1.436641,3.093803 -2.907362,6.172802 -4.414751,9.23285 -0.991141,2.020004 -1.968459,4.049914 -2.863087,6.114962 -0.600311,1.317041 -1.044701,2.691758 -1.474821,4.07063 -0.280679,0.92158 -0.496921,1.866808 -0.628311,2.821459 -0.0919,0.673748 -0.05523,1.352696 0.03774,2.023433 0.07656,0.572791 0.239271,1.124251 0.428449,1.667955 0.175617,0.4682 0.382059,0.921936 0.623424,1.359533 0.24415,0.390145 0.553696,0.746397 0.908141,1.040027 0.41435,0.317525 0.909464,0.464403 1.410754,0.577289 3.751977,0.849409 9.845145,0.09286 11.802052,0.0562 0.169243,-0.0032 0.784306,-0.441398 0.94614,-0.540362 0.74297,-0.421076 1.149367,-1.12631 1.544379,-1.851744 0.402548,-0.894805 0.67633,-1.847023 0.896596,-2.801932 0.166434,-0.77729 0.208575,-1.570505 0.166207,-2.362167 -0.02113,-0.563011 -0.168242,-1.088656 -0.42588,-1.585889 -0.273249,-0.457482 -0.706179,-0.678616 -1.177648,-0.874803 -3.840273,-0.913559 -0.485046,-0.132873 -11.410072,-0.08839 -0.307161,0.0012 -0.674896,0.398522 -0.872603,0.591719 -0.371519,0.405577 -0.641857,0.87796 -0.910155,1.354257 -0.198604,0.342123 -0.284611,0.718769 -0.37075,1.099642 -0.02415,0.107488 -0.04784,0.215084 -0.07156,0.322668 0,0 11.222992,0.180708 11.222992,0.180708 v 0 c 0.0094,-0.09473 0.01873,-0.18949 0.03263,-0.283693 0.04352,-0.264928 0.135936,-0.510965 0.282018,-0.738332 0.201801,-0.340009 0.452628,-0.66761 0.840662,-0.799259 0.218346,-0.04844 0.385438,-0.06629 0.608292,-0.03576 0.07006,0.0096 0.280378,0.03245 0.209662,0.03239 -11.235862,-0.01 -14.332827,0.241923 -10.558303,-0.05805 0.356782,-0.05172 0.723554,-0.0061 1.073642,0.06928 0.35235,0.144562 0.435373,0.575925 0.507535,0.9106 0.08661,0.677568 0.12515,1.358419 -0.03486,2.030754 -0.173953,0.849581 -0.414747,1.696853 -0.900917,2.426017 -0.409367,0.559896 -0.897428,0.984661 -1.560145,1.222562 -0.269,0.08819 -0.347353,0.133718 -0.631297,0.149323 -0.10439,0.0058 -0.417944,-0.01137 -0.313405,-0.01164 16.803364,-0.04282 13.80348,-0.340455 10.059957,0.0446 -0.438167,-0.05459 -0.882727,-0.08572 -1.310375,-0.200965 -0.388148,-0.11544 -0.578736,-0.266669 -0.873725,-0.544516 -0.290483,-0.318889 -0.478156,-0.708791 -0.654641,-1.098746 -0.199693,-0.463422 -0.371214,-0.937189 -0.453517,-1.437357 -0.109829,-0.569971 -0.159518,-1.150425 -0.117149,-1.730744 0.06021,-0.891234 0.192432,-1.777686 0.401396,-2.646518 0.323507,-1.346191 0.760768,-2.658348 1.204199,-3.969126 0.718848,-2.050708 1.510633,-4.07292 2.329149,-6.085833 1.267469,-3.103288 2.577364,-6.190107 3.958391,-9.24467 1.512672,-3.27766 3.082977,-6.526717 4.712239,-9.748087 0.94008,-2.201558 1.951383,-4.373523 2.767469,-6.626142 0.124546,-0.283278 0.249091,-0.566557 0.373638,-0.849834 0.09703,-0.22844 0.191985,-0.457772 0.291093,-0.685319 0.1772,-0.406844 0.35253,-0.863192 0.622186,-1.223077 0.03946,-0.05267 0.09225,-0.09389 0.138386,-0.140837 z" />
  <path
     style="fill:#000000;stroke:#000000;stroke-width:0;stroke-linecap:round"
     id="path12"
     d="m 60.768924,101.76128 c 0.59315,-0.63963 1.183662,-1.29059 1.766072,-1.94266 1.231875,-1.36363 2.370483,-2.7924 3.397015,-4.31591 1.29482,-2.036375 2.413043,-4.175781 3.624301,-6.261352 1.278239,-2.179911 2.429726,-4.426919 3.489494,-6.719729 0.95198,-2.180194 1.893749,-4.364871 2.763785,-6.579185 0.128675,-0.359717 0.255977,-0.719929 0.386024,-1.079153 0.262156,-0.724157 0.494883,-1.309788 0.716163,-2.046683 0.305618,-1.017754 0.526882,-2.061813 0.756532,-3.098414 0.355843,-1.940307 0.443259,-3.912811 0.402478,-5.880771 -0.06376,-1.362684 -0.221247,-2.724311 -0.544569,-4.050584 -0.205306,-0.837383 -0.579921,-1.601943 -1.067398,-2.307335 -0.359577,-0.513075 -0.82954,-0.917759 -1.332924,-1.281919 -0.412315,-0.283595 -0.869731,-0.47187 -1.346014,-0.615692 -0.08722,-0.03404 -0.171134,-0.07821 -0.261651,-0.102139 -0.09165,-0.02424 -0.18659,-0.04146 -0.281398,-0.04139 -3.732661,0.0029 -7.465475,0.0061 -11.197876,0.05032 -0.249455,0.0029 -0.5785,0.205041 -0.813211,0.286338 -0.466063,0.225699 -0.946057,0.41888 -1.373406,0.713214 -0.440045,0.242464 -0.695807,0.612557 -0.879743,1.067879 -0.164823,0.471408 -0.191566,0.969878 -0.209679,1.464302 -0.03738,0.351961 -0.01816,0.700792 0.01915,1.051254 0.024,0.290925 0.09739,0.571919 0.164108,0.85475 0.04834,0.241429 0.113615,0.477585 0.202376,0.707287 0.08288,0.244926 0.155552,0.512718 0.308478,0.724925 0.09524,0.211341 0.236904,0.390662 0.333357,0.601994 0.130645,0.136396 0.232907,0.297383 0.343439,0.45009 0.08716,0.210092 0.241686,0.297141 0.381817,0.451754 0.09881,0.187359 0.254358,0.251642 0.427031,0.33401 0.185306,0.120635 0.33796,0.29531 0.492364,0.455181 3.699093,1.177048 8.401006,1.590045 11.895851,-0.254407 0.327725,-0.08222 0.545349,-0.266444 0.693664,-0.566542 0.180641,-0.329608 0.366483,-0.663067 0.505683,-1.012766 0.03062,-0.127215 0.110814,-0.205245 0.187835,-0.303191 0,0 -11.178632,-0.583443 -11.178632,-0.583443 v 0 c -0.05822,0.1324 -0.106109,0.268333 -0.166512,0.399737 -0.130061,0.227218 -0.239444,0.464266 -0.494323,0.576181 -0.19443,-0.06717 -0.450926,0.03885 -0.644402,0.09624 -0.128573,0.01436 -0.258844,0.01074 -0.388094,0.01358 -0.04429,8.98e-4 -0.176781,-0.01018 -0.132485,-0.01029 10.988353,-0.03716 14.347673,-1.239405 10.803086,0.01418 -0.110474,0.182448 -0.236055,0.199981 -0.398533,0.06421 -0.123669,-0.102206 -0.235308,-0.225137 -0.414411,-0.18667 -0.03934,-0.02429 -0.09258,-0.02989 -0.122434,-0.06522 -0.08139,-0.09628 -0.09775,-0.18731 -0.25005,-0.176116 -0.125817,-0.143823 -0.251913,-0.288169 -0.346859,-0.455196 -0.152258,-0.02997 -0.232481,-0.319954 -0.338244,-0.423464 -0.08288,-0.175689 -0.218465,-0.311848 -0.306767,-0.486793 -0.05889,-0.22312 -0.162073,-0.42317 -0.209314,-0.648391 -0.06793,-0.241711 -0.150811,-0.479917 -0.174531,-0.731232 -0.05344,-0.284053 -0.07765,-0.566758 -0.06919,-0.85652 0.008,-0.310354 -0.01131,-0.646795 0.193223,-0.903453 0.234633,-0.213774 0.528713,-0.334014 0.804853,-0.486945 0.426382,-0.178943 0.849014,-0.377684 1.307972,-0.458077 0.259951,-0.05434 0.232187,-0.06087 0.498034,-0.06733 0.09069,-0.0021 0.362874,0.0027 0.272154,0.0029 -22.951828,0.03498 -13.576648,0.788213 -10.176013,-0.0834 0.45132,0.08091 0.913515,0.133539 1.337308,0.319321 0.510361,0.188107 0.980796,0.481236 1.380947,0.849998 0.528006,0.539904 0.931928,1.171821 1.214088,1.874314 0.447383,1.222647 0.738994,2.493443 0.860805,3.791312 0.167735,1.876474 0.117549,3.75932 -0.250579,5.613079 -0.396195,2.067573 -0.997548,4.090075 -1.744342,6.058441 -0.831818,2.196129 -1.715328,4.372817 -2.677081,6.51557 -1.04906,2.256446 -2.149115,4.488056 -3.414124,6.633194 -1.205387,2.105021 -2.46516,4.184117 -3.89785,6.143977 -1.109358,1.45295 -2.264368,2.88021 -3.61103,4.12308 -0.750406,0.65618 -1.52041,1.28992 -2.416174,1.73815 z" />
  <path
     style="fill:#000000;stroke:#000000;stroke-width:0;stroke-linecap:round"
     id="path13"
     d="m 81.928804,104.75126 c 0.538904,-0.48021 1.046665,-0.99511 1.554687,-1.50819 1.260007,-1.28756 2.291464,-2.75804 3.254589,-4.27356 0.210629,-0.34876 0.434157,-0.69005 0.631885,-1.04628 0.388627,-0.70016 0.970465,-1.92996 1.312277,-2.63004 0.744959,-1.52577 1.455861,-3.064624 2.169562,-4.605278 1.415069,-3.040205 2.812761,-6.085474 4.056279,-9.20034 0.956055,-2.464391 1.78239,-4.97591 2.440042,-7.535872 0.454061,-1.833509 0.853981,-3.682973 1.156613,-5.547779 0.224456,-1.236339 0.316172,-2.485878 0.339572,-3.740106 0.0027,-0.95437 -0.144212,-1.898974 -0.325421,-2.833183 -0.136384,-0.758038 -0.371675,-1.48896 -0.622282,-2.21506 -0.199891,-0.550287 -0.444114,-1.0828 -0.713357,-1.602248 -0.443755,-0.627712 -1.064714,-1.105593 -1.662033,-1.580113 -0.423111,-0.339414 -0.883038,-0.625094 -1.331318,-0.928543 -0.179495,-0.112091 -0.378582,-0.246516 -0.575737,-0.325042 -0.2935,-0.116897 -0.636885,-0.161929 -0.951726,-0.162106 -3.727706,-0.0021 -7.455412,0.0085 -11.183118,0.0128 -0.476591,0.03669 -0.914388,0.199346 -1.369964,0.32131 -0.365841,0.165829 -0.644915,0.412626 -0.885997,0.729716 -0.273797,0.366597 -0.454723,0.797684 -0.667508,1.202592 -0.184786,0.379405 -0.299556,0.783391 -0.413895,1.187531 -0.09303,0.399738 -0.130229,0.808793 -0.158896,1.217362 -0.05098,0.406943 -0.04406,0.818716 -0.022,1.2275 0.03397,0.33975 0.08917,0.680767 0.185836,1.008699 0.09687,0.321697 0.214832,0.635823 0.33295,0.950104 0.117389,0.293034 0.252273,0.578607 0.35935,0.875583 0.10975,0.273672 0.225598,0.545294 0.358984,0.808438 0.109705,0.179447 0.197446,0.360768 0.318363,0.532195 0.0794,0.207397 0.220173,0.343724 0.345468,0.515977 0.136524,0.182508 0.25952,0.384944 0.448005,0.518733 0.194116,0.119889 0.406402,0.184684 0.628496,0.228301 3.784845,0.655287 5.075501,0.07174 11.391086,0.05912 0.07879,-1.58e-4 0.229109,-0.08028 0.313159,-0.100047 0.0046,-2.98e-4 0.188146,-0.01565 0.192305,-0.01798 0.04134,-0.02313 0.06296,-0.07158 0.100578,-0.100375 0.05361,-0.04103 0.143999,-0.03058 0.18376,-0.08514 0.0493,-0.06764 0.06864,-0.15269 0.102953,-0.229037 0.200978,-0.302845 0.44279,-0.572601 0.623215,-0.890259 0.165958,-0.204224 0.282874,-0.43101 0.412683,-0.660593 0,0 -11.143006,-0.608635 -11.143006,-0.608635 v 0 c -0.129435,0.199295 -0.285907,0.378195 -0.405931,0.584012 -0.181763,0.190758 -0.371897,0.431373 -0.633948,0.500475 -0.02954,-0.03179 -0.0486,-0.07849 -0.08857,-0.09536 -0.05607,-0.02367 -0.120498,0.0464 -0.179703,0.03229 -0.109863,-0.02618 -0.09709,-0.07687 -0.270367,-0.01482 -0.0469,0.0031 -0.565935,-0.02071 -0.291091,-0.02049 18.953357,0.01493 14.497418,0.173511 10.781317,0.02586 -0.19493,-0.0085 -0.38826,0.0033 -0.582043,0.0015 -0.318432,0.02765 0.16133,-0.03094 -0.145795,0.06721 -0.04936,0.01577 -0.206104,-0.03199 -0.241809,-0.05633 -0.03572,-0.02472 -0.08646,-0.03046 -0.113087,-0.06479 -0.07313,-0.09434 -0.08798,-0.189606 -0.226086,-0.214077 -0.03815,-0.06762 -0.06421,-0.142511 -0.109479,-0.205587 -0.07485,-0.104287 -0.214217,-0.154448 -0.228951,-0.322923 -0.148829,-0.194326 -0.271924,-0.387969 -0.373688,-0.611906 -0.129024,-0.296232 -0.257609,-0.592376 -0.378855,-0.89142 -0.126098,-0.272068 -0.233666,-0.554776 -0.313368,-0.843667 -0.08008,-0.247796 -0.152708,-0.494632 -0.204538,-0.7516 -0.02947,-0.349202 -0.07083,-0.695514 -0.01636,-1.045686 0.04232,-0.345219 0.09235,-0.691007 0.188975,-1.025721 0.08558,-0.32753 0.20686,-0.646384 0.372701,-0.942125 0.171416,-0.318958 0.354986,-0.617311 0.677685,-0.80105 0.259931,-0.107544 0.538037,-0.18181 0.818735,-0.20203 0.401452,-0.09367 0.824198,-0.09223 1.234407,-0.08465 -3.538004,8.97e-4 -7.076008,0.0084 -10.61401,0.0031 -0.101415,-1.56e-4 0.202498,-0.01197 0.303695,-0.01873 0.282248,-0.01891 0.586435,-0.09923 0.867977,-0.09262 0.07507,0.0018 0.147587,0.02792 0.221379,0.04186 0.498993,0.229424 0.952073,0.547135 1.434451,0.809393 0.545577,0.337259 1.054127,0.72694 1.524773,1.163163 0.338168,0.411405 0.54458,0.91076 0.786544,1.381627 0.289355,0.654095 0.534055,1.329708 0.703223,2.025406 0.187927,0.86573 0.392663,1.73292 0.418455,2.623077 0.04792,1.198567 0.02014,2.397378 -0.0917,3.592322 -0.17769,1.828047 -0.447254,3.645984 -0.816562,5.445592 -0.549153,2.506717 -1.173041,5.000418 -2.058376,7.412917 -1.148849,3.096363 -2.391194,6.159731 -3.834849,9.132006 -1.385998,2.796054 -2.795058,5.594757 -4.697694,8.084737 -1.122395,1.44328 -2.307972,2.84458 -3.74016,3.99466 -0.654174,0.51167 -1.326877,0.98705 -2.064096,1.37276 z" />
</svg>
