<?xml version="1.0" encoding="UTF-8" standalone="no"?>
<!-- Created with Inkscape (http://www.inkscape.org/) -->

<svg
   width="109.28715mm"
   height="115.4245mm"
   viewBox="0 0 109.28715 115.4245"
   version="1.1"
   id="svg1"
   xmlns="http://www.w3.org/2000/svg"
   xmlns:svg="http://www.w3.org/2000/svg">
  <defs
     id="defs1" />
  <path
     style="fill:#000000;stroke:#000000;stroke-width:0;stroke-linecap:round"
     id="path3"
     d="M 79.341045,36.033705 C 79.290185,35.485871 79.174441,34.948388 79.077194,34.40866 78.874684,33.262007 78.765191,32.099879 78.718455,30.934926 78.671845,29.540823 78.595961,28.148523 78.461372,26.760939 78.317757,25.391267 78.121466,24.029443 77.908271,22.670535 77.692989,21.21291 77.223422,19.81473 76.71236,18.44973 75.87409,16.611265 74.853731,14.874881 73.775394,13.188518 72.768546,11.564732 71.490314,10.184701 70.092367,8.9480709 68.89888,7.9396549 67.538038,7.1662549 66.053304,6.7830329 c -0.367162,-0.09477 -0.742048,-0.151271 -1.113073,-0.226906 -0.420975,-0.04246 -0.840769,-0.101614 -1.262925,-0.12739 -0.458026,-0.02797 -0.917189,-0.03692 -1.37595,-0.03373 -2.87686,0.02 -5.754346,0.02043 -8.630226,0.103296 -0.50294,0.01449 -1.000239,0.118149 -1.499037,0.188551 -1.344838,0.189812 -1.822122,0.290362 -3.16388,0.534195 -1.557654,0.278534 -3.088293,0.691072 -4.603736,1.16123 -0.895959,0.277967 -1.954501,0.617549 -2.828257,0.975555 -0.453424,0.185781 -0.894555,0.404209 -1.341833,0.606313 -2.491766,1.1705621 -4.823556,2.6731661 -7.004485,4.4065671 -0.836883,0.709371 -1.648438,1.441629 -2.297167,2.356218 -0.599595,0.845319 -1.04055,1.775048 -1.468853,2.725906 -0.744647,2.082489 -0.885586,4.307683 -0.898492,6.5142 -0.03329,2.096589 0.302399,4.160309 0.670695,6.210064 0.283965,1.435021 0.583347,2.865487 0.95103,4.278725 0.2532,0.923061 0.549544,1.832524 0.916736,2.710822 0.403529,0.965615 0.929485,1.863238 1.499761,2.724426 0.701352,1.087379 1.569492,2.030938 2.442969,2.958239 1.008188,1.039537 2.068849,2.020057 3.134114,2.991735 1.752592,1.674577 3.44863,3.413936 5.180819,5.112487 1.991513,2.027095 4.125535,3.878805 6.383094,5.553821 2.256966,1.633406 4.643052,3.046224 6.999744,4.504993 2.120518,1.268987 4.173267,2.659893 6.2054,4.082876 1.746741,1.218541 3.399729,2.575418 4.928881,4.090849 1.328438,1.357722 2.396855,2.945155 3.325569,4.631084 0.825506,1.564497 1.376831,3.25321 1.826864,4.97612 0.475926,1.853316 0.607637,3.769073 0.62762,5.682116 0.02993,1.961551 -0.228265,3.907725 -0.599372,5.823441 -0.264914,1.225791 -0.66076,2.420851 -1.185723,3.547551 -0.335801,0.72072 -0.492181,0.95044 -0.891061,1.63045 -0.956383,1.56731 -2.196366,2.879253 -3.548994,4.051063 -1.372508,1.1329 -2.914632,1.99865 -4.476615,2.78942 -1.465406,0.75448 -3.005882,1.29968 -4.561346,1.79391 -1.849978,0.54736 -3.739631,0.9205 -5.640078,1.19683 -0.309301,0.0338 -0.618129,0.073 -0.927903,0.10134 -0.593029,0.0543 -1.197623,0.0879 -1.792725,0.10187 -0.28896,0.006 -1.156098,0.006 -0.86707,0.006 7.204722,-0.0164 9.12419,0.0863 6.04743,-0.0572 -1.526988,-0.0968 -3.02534,-0.41965 -4.490851,-0.87541 -1.105545,-0.39516 -2.166508,-0.9298 -3.151701,-1.59701 -0.68518,-0.46404 -1.013226,-0.75274 -1.663217,-1.27867 -1.684938,-1.41374 -3.146292,-3.09024 -4.534427,-4.825463 -1.186884,-1.54625 -2.198852,-3.22814 -3.07081,-4.99492 -0.567096,-1.216362 -1.054991,-2.473987 -1.489955,-3.750567 -0.202203,-0.634846 -0.107245,-0.324001 -0.28593,-0.932162 0,0 -8.153845,0.307 -8.153845,0.307 v 0 c 0.242778,0.619427 0.118295,0.301329 0.373392,0.954322 0.535354,1.311511 1.114705,2.603097 1.787663,3.841277 0.973128,1.80433 2.046449,3.53488 3.296477,5.13703 1.370322,1.799873 2.879125,3.467573 4.517183,4.992493 1.404529,1.25415 2.863052,2.49309 4.592208,3.19385 0.242593,0.0964 0.481865,0.20302 0.727778,0.28929 1.238389,0.4344 2.540506,0.6217 3.828374,0.7936 3.619628,0.31242 0.933712,0.10402 9.346293,0.084 1.176495,-0.003 2.351003,-0.15809 3.514554,-0.32619 1.91235,-0.33412 3.819589,-0.72773 5.682781,-1.30338 1.612012,-0.4958 3.191336,-1.09733 4.682032,-1.92971 1.541369,-0.87669 3.068507,-1.80524 4.426671,-2.98755 0.228576,-0.21013 0.464157,-0.41184 0.685732,-0.63039 1.102731,-1.08763 2.052032,-2.346973 2.861897,-3.694183 0.938434,-1.70853 1.713046,-3.51655 2.093571,-5.467581 0.346425,-1.979015 0.536148,-3.981941 0.575997,-5.995928 -0.03124,-1.9762 -0.134687,-3.957696 -0.578613,-5.884517 C 80.369448,78.769107 79.805195,77.006502 78.933455,75.381867 77.984188,73.604444 76.845554,71.95773 75.47349,70.522855 75.225935,70.268325 74.984803,70.00645 74.730823,69.759265 73.396691,68.460829 71.902736,67.37186 70.408135,66.299606 68.324973,64.856295 66.191703,63.497197 64.035429,62.182705 61.648998,60.793028 59.282861,59.356627 57.015563,57.752267 54.757931,56.099485 52.558319,54.348239 50.575708,52.3241 50.246024,51.979815 49.90911,51.643274 49.586657,51.291243 c -1.237315,-1.350804 -2.350835,-2.829296 -3.631963,-4.133957 -0.943657,-1.03677 -1.94209,-2.010953 -2.939468,-2.987956 -0.846792,-0.875604 -1.696769,-1.755254 -2.368013,-2.79765 -0.513229,-0.824093 -0.985396,-1.673337 -1.361135,-2.58041 -0.37321,-0.856081 -0.72522,-1.722063 -1.024004,-2.611582 -0.491742,-1.371693 -0.959651,-2.754582 -1.303303,-4.178794 -0.444873,-1.978966 -0.770742,-3.98857 -0.787657,-6.030572 0.0056,-2.096944 0.168584,-4.210056 0.988538,-6.146453 0.310949,-0.682792 0.459322,-1.062177 0.849377,-1.701864 0.713922,-1.170824 1.673187,-2.12922 2.673215,-3.015653 2.074894,-1.727517 4.257956,-3.164719 6.70083,-4.231711 0.45181,-0.187477 0.900188,-0.384699 1.355428,-0.562431 2.351074,-0.9178951 4.786398,-1.5822771 7.252196,-2.0328431 0.528211,-0.08914 1.054975,-0.188704 1.584632,-0.26742 0.541628,-0.08049 1.084626,-0.151342 1.628686,-0.21013 0.52779,-0.05703 2.11623,-0.112935 1.586244,-0.137254 -1.908294,-0.08756 -3.820003,-0.03025 -5.729933,-0.05289 -0.419773,-0.005 0.839774,-0.01298 1.2594,-9.1e-5 0.37827,0.01161 0.755463,0.04903 1.133194,0.07355 0.334981,0.05367 0.672615,0.09098 1.004945,0.161009 1.416182,0.298431 2.729829,0.966235 3.906419,1.849136 1.418528,1.1428741 2.707159,2.4456361 3.748075,3.9944881 1.064952,1.585139 2.093618,3.22429 2.728444,5.067757 0.05867,0.171729 0.427834,1.24573 0.482705,1.431751 0.254056,0.861241 0.415995,1.751898 0.593234,2.633352 0.240758,1.332709 0.429846,2.676911 0.582986,4.024126 0.127639,1.371885 0.209708,2.747049 0.243416,4.125458 0.05043,1.182479 0.03111,2.36672 0.09562,3.548736 0.02461,0.405541 0.127339,0.948676 -0.03234,1.332108 z" />
  <path
     d="m 19.732241,54.342333 11.510888,5.604607 c 5.416129,-0.979711 10.847232,-1.049928 16.271033,-1.209466 -0.159106,-0.01568 -0.636608,-0.04641 -0.477424,-0.0471 9.646549,-0.04542 19.29355,0.15829 28.939628,0.427647 6.016496,0.206303 3.096441,0.09887 8.761562,0.320264 l 7.619175,-3.701867 c -6.296327,0.09974 -3.065042,0.0541 -9.692508,0.13186 C 68.768216,55.951725 54.872324,55.721435 40.976086,55.553666 33.894057,55.367814 26.810298,55.141614 19.732241,54.342315 Z"
     style="stroke:#000000;stroke-width:0;stroke-linecap:round"
     id="path5" />
</svg>
