<?xml version="1.0" encoding="UTF-8" standalone="no"?>
<!-- Created with Inkscape (http://www.inkscape.org/) -->

<svg
   width="99.044991mm"
   height="113.32665mm"
   viewBox="0 0 99.044991 113.32665"
   version="1.1"
   id="svg1"
   xmlns="http://www.w3.org/2000/svg"
   xmlns:svg="http://www.w3.org/2000/svg">
  <defs
     id="defs1" />
  <path
     style="fill:#000000;stroke:#000000;stroke-width:0;stroke-linecap:round"
     d="m 67.620944,75.170445 c -0.951315,0.267295 -1.536694,0.912022 -2.292191,1.418526 -0.966484,0.647951 -1.898879,1.188204 -2.468513,2.206592 -0.08461,0.151272 0.05644,0.479092 0,0.630456 -0.562586,1.50867 1.517204,2.660372 3.173804,2.364206 1.068248,-0.19098 1.73041,-0.852211 2.644836,-1.260911 1.886993,-0.843387 4.730113,-1.336272 6.876577,-0.788068 2.423309,0.61891 4.529319,3.720414 5.465999,5.674098 0.671955,1.401533 0.592284,2.913698 0.352645,4.413188 -0.872273,5.458028 -3.365436,9.176694 -7.405544,13.239568 -1.507989,1.51647 -3.189455,3.06609 -5.113354,4.09795 -0.90101,0.48325 -1.966484,0.85131 -2.997482,1.26091 -1.151084,0.45731 -2.997481,0.60852 -2.997481,2.04898 0,0.0701 -0.05471,0.53265 0,0.63045 1.212953,2.16852 5.341979,1.0542 7.405544,0.94569 1.935631,-0.10173 3.885479,-0.0247 5.818641,-0.15761 1.370151,-0.0942 2.727237,-0.51409 4.055418,-0.78808 2.114978,-0.43628 4.257289,-0.79378 6.347608,-1.2609 0.868531,-0.1941 2.015237,-0.0957 2.997482,-0.31523 0.487328,-0.10893 1.111501,0.14165 1.586904,0 0.805789,-0.2401 2.082168,-0.31523 2.997481,-0.31523 2.649587,0 1.704586,-2.73185 0.528968,-3.78273 -0.314019,-0.28071 -1.164937,-0.34711 -1.586902,-0.47284 -1.411243,-0.4205 -3.240177,0.39014 -4.584383,0.63045 -1.263765,0.22593 -3.171529,0.22107 -4.408063,0 -0.600864,-0.10742 -1.304034,-0.27123 -1.93955,-0.15761 -1.246742,0.22289 -2.62616,0.94569 -3.879095,0.94569 -0.737106,0 1.374142,-2.55178 1.586904,-2.83705 1.02775,-1.37806 1.664981,-2.94174 2.644837,-4.255583 0.731503,-0.98082 1.108654,-2.083511 1.586904,-3.152273 0.328191,-0.733419 0.979613,-1.409907 1.234258,-2.206595 0.39505,-1.235962 0.950969,-2.516579 1.234255,-3.78273 0.129851,-0.580387 0.137842,-1.157719 0.352646,-1.733753 0.562966,-1.509695 -0.962659,-3.64227 -1.410578,-5.043641 -0.49047,-1.534493 -0.128928,-3.117537 -1.057936,-4.570802 -1.365614,-2.136248 -4.078197,-3.847813 -6.876577,-4.09796 -0.409379,-0.03659 -0.825357,0.04061 -1.234258,0 -0.293904,-0.0292 -0.644443,-0.209225 -0.881614,-0.315229 -0.503002,-0.224814 -2.285253,0.313164 -2.821159,0.472842 -0.933717,0.278216 -1.983946,-0.459611 -2.997481,-0.157613 -0.586218,0.174673 -1.256767,0.350776 -1.93955,0.472842"
     id="path5" />
  <path
     style="fill:#000000;stroke:#000000;stroke-width:0;stroke-linecap:round"
     d="m 28.464365,51.438084 c -0.05808,-0.2262 0.116151,-0.723842 -0.174228,-0.678601 -0.290377,0.04524 0.191617,0.448318 0.174228,0.678601 -0.04149,0.54942 -0.151467,1.1001 -0.348455,1.628648 -0.418017,1.121619 -1.834778,3.763219 -2.439175,4.885938 -1.728193,3.210261 -4.015481,6.216857 -5.923715,9.364718 -1.340782,2.211779 -1.98737,3.566838 -3.136085,5.971704 -2.400134,5.024747 -4.825877,9.993453 -6.446396,15.200699 -0.8438675,2.711619 -1.9038117,5.317805 -0.5226812,8.007514 0.153878,0.29967 0.3343238,0.626023 0.6969082,0.814321 0.04534,0.02355 0.653167,0.271442 0.696909,0.271442 1.022443,0 3.315868,-2.788764 3.832991,-3.393014 3.017217,-3.52556 7.152426,-6.321071 10.279388,-9.771878 1.092423,-1.20556 1.913891,-2.63135 2.787632,-3.935896 1.310783,-1.957078 2.687726,-3.883036 4.007216,-5.835984 1.989152,-2.944092 3.605331,-5.987973 4.529901,-9.228997 0.32819,-1.150445 0.810283,-2.277057 1.219589,-3.393011 0.11737,-0.320001 0.174227,-0.756045 0.174227,-1.085766 0,-0.04524 0,-0.180961 0,-0.13572 0,2.785909 2.274507,5.307988 3.832992,7.73607 0.666598,1.038547 1.190003,2.181772 1.742268,3.257293 1.195166,2.327545 2.140437,4.728541 3.310311,7.057469 2.452976,4.883245 5.297911,9.798556 8.537119,14.386378 0.501947,0.710927 4.146532,6.121024 5.575264,5.564542 1.341251,-0.52241 2.635979,-3.940882 2.787629,-4.885939 0.156973,-0.978241 0.522682,-1.998028 0.522682,-2.985852 0,-3.534087 -1.463357,-6.639123 -2.961858,-9.907601 -0.864953,-1.886601 -1.887898,-3.695525 -2.787632,-5.564542 -0.583214,-1.211514 -0.06343,-0.720352 -0.871132,-1.900086 -3.582018,-5.2319 -8.176401,-9.893268 -12.370112,-14.79354 -0.101876,-0.119036 -0.06403,-0.292713 -0.174228,-0.407162 -0.122543,-0.127275 -1.393816,-1.207907 -1.393816,-1.221486 0,-0.424505 4.510843,-6.484889 4.704127,-6.786025 2.264596,-3.528182 4.602328,-7.038927 6.79485,-10.586204 3.174794,-5.136487 5.590106,-10.557362 7.665984,-16.015023 0.590534,-1.552562 2.934138,-6.42205 1.74227,-8.278952 -0.371519,-0.578815 -1.471768,0.332166 -1.74227,0.542882 -2.047644,1.59509 -3.950274,3.665776 -5.575259,5.564542 -0.901562,1.053455 -1.779742,1.999859 -2.613406,3.121572 -0.846338,1.138766 -1.476725,2.297243 -2.439176,3.393014 -3.619559,4.12094 -7.15441,7.933839 -9.059801,12.75773 -0.467671,1.184008 -1.115293,2.17247 -1.393814,3.257294 -0.116022,0.451905 -0.248943,0.116406 -0.522681,0.542882 -0.03488,0.05434 -0.239141,0.814322 -0.348454,0.814322 -0.155406,0 -0.801585,-1.248847 -0.871136,-1.357204 -1.036099,-1.61422 -2.637754,-2.92699 -3.832992,-4.478779 -1.225937,-1.591652 -2.806938,-3.011636 -4.007219,-4.614498 -1.101986,-1.471601 -1.970807,-2.986564 -3.310311,-4.343057 -2.24192,-2.270358 -5.198489,-4.010114 -7.491757,-6.243145 -1.145633,-1.115543 -1.92773,-2.377917 -2.961857,-3.528734 -0.968329,-1.077595 -2.568979,-2.963682 -4.355672,-2.035808 -0.301583,0.15662 -0.685667,0.118208 -0.871135,0.407162 -1.462382,2.278354 0.741841,6.297794 1.568042,8.550394 0.298366,0.813478 0.403682,1.643504 0.696908,2.442969 0.416414,1.135333 1.037833,2.291612 1.568042,3.393014 0.235428,0.489054 0.966103,1.29014 1.219589,1.628646 0.81859,1.09315 1.453499,2.286821 2.26495,3.393015 1.649655,2.248855 2.918722,4.818734 4.355671,7.057466 0.642031,1.000268 1.212495,2.209401 2.090725,3.121573 0.362957,0.376986 1.742267,1.604232 1.742267,2.035807 0,0.186531 -0.116151,0.361924 -0.174226,0.542883 z"
     id="path14" />
</svg>
